<mxfile host="app.diagrams.net" modified="2024-05-20T14:21:50.378Z" agent="Mozilla/5.0 (X11; Linux x86_64) AppleWebKit/537.36 (KHTML, like Gecko) Chrome/119.0.0.0 Safari/537.36" etag="sztlDl6H7ddnAXT2QfBN" version="24.4.4" type="github">
  <diagram name="第 1 页" id="4tPQakCHZbBGS85c5fzE">
    <mxGraphModel dx="1766" dy="713" grid="1" gridSize="10" guides="1" tooltips="1" connect="1" arrows="1" fold="1" page="1" pageScale="1" pageWidth="827" pageHeight="1169" math="1" shadow="0">
      <root>
        <mxCell id="0" />
        <mxCell id="1" parent="0" />
        <mxCell id="1EqsSl1_fIFVqMldxpXV-1" value="" style="group" vertex="1" connectable="0" parent="1">
          <mxGeometry x="1110" y="1270" width="140" height="145" as="geometry" />
        </mxCell>
        <mxCell id="1EqsSl1_fIFVqMldxpXV-2" value="" style="ellipse;whiteSpace=wrap;html=1;aspect=fixed;" vertex="1" parent="1EqsSl1_fIFVqMldxpXV-1">
          <mxGeometry x="105" y="90" width="30" height="30" as="geometry" />
        </mxCell>
        <mxCell id="1EqsSl1_fIFVqMldxpXV-3" value="" style="ellipse;whiteSpace=wrap;html=1;aspect=fixed;" vertex="1" parent="1EqsSl1_fIFVqMldxpXV-1">
          <mxGeometry x="5" y="85" width="30" height="30" as="geometry" />
        </mxCell>
        <mxCell id="1EqsSl1_fIFVqMldxpXV-4" value="" style="shape=cube;whiteSpace=wrap;html=1;boundedLbl=1;backgroundOutline=1;darkOpacity=0.05;darkOpacity2=0.1;" vertex="1" parent="1EqsSl1_fIFVqMldxpXV-1">
          <mxGeometry x="5" y="30" width="130" height="85" as="geometry" />
        </mxCell>
        <mxCell id="1EqsSl1_fIFVqMldxpXV-5" value="" style="group" vertex="1" connectable="0" parent="1EqsSl1_fIFVqMldxpXV-1">
          <mxGeometry x="60" width="60" height="100" as="geometry" />
        </mxCell>
        <mxCell id="1EqsSl1_fIFVqMldxpXV-6" value="" style="group" vertex="1" connectable="0" parent="1EqsSl1_fIFVqMldxpXV-5">
          <mxGeometry width="60" height="100" as="geometry" />
        </mxCell>
        <mxCell id="1EqsSl1_fIFVqMldxpXV-7" value="" style="endArrow=classic;html=1;" edge="1" parent="1EqsSl1_fIFVqMldxpXV-6">
          <mxGeometry width="50" height="50" relative="1" as="geometry">
            <mxPoint y="49.52" as="sourcePoint" />
            <mxPoint y="20" as="targetPoint" />
          </mxGeometry>
        </mxCell>
        <mxCell id="1EqsSl1_fIFVqMldxpXV-8" value="" style="endArrow=classic;html=1;" edge="1" parent="1EqsSl1_fIFVqMldxpXV-6">
          <mxGeometry width="50" height="50" relative="1" as="geometry">
            <mxPoint y="49.52" as="sourcePoint" />
            <mxPoint x="30" y="50" as="targetPoint" />
          </mxGeometry>
        </mxCell>
        <mxCell id="1EqsSl1_fIFVqMldxpXV-9" value="" style="endArrow=classic;html=1;" edge="1" parent="1EqsSl1_fIFVqMldxpXV-6">
          <mxGeometry width="50" height="50" relative="1" as="geometry">
            <mxPoint y="49.52" as="sourcePoint" />
            <mxPoint x="20" y="30" as="targetPoint" />
          </mxGeometry>
        </mxCell>
        <mxCell id="1EqsSl1_fIFVqMldxpXV-10" value="" style="group" vertex="1" connectable="0" parent="1EqsSl1_fIFVqMldxpXV-6">
          <mxGeometry y="50" width="60" height="50" as="geometry" />
        </mxCell>
        <mxCell id="1EqsSl1_fIFVqMldxpXV-11" value="" style="group" vertex="1" connectable="0" parent="1EqsSl1_fIFVqMldxpXV-10">
          <mxGeometry width="60" height="50" as="geometry" />
        </mxCell>
        <mxCell id="1EqsSl1_fIFVqMldxpXV-12" value="" style="endArrow=classic;html=1;" edge="1" parent="1EqsSl1_fIFVqMldxpXV-11">
          <mxGeometry width="50" height="50" relative="1" as="geometry">
            <mxPoint y="50" as="sourcePoint" />
            <mxPoint y="20" as="targetPoint" />
          </mxGeometry>
        </mxCell>
        <mxCell id="1EqsSl1_fIFVqMldxpXV-13" value="" style="endArrow=classic;html=1;" edge="1" parent="1EqsSl1_fIFVqMldxpXV-11">
          <mxGeometry width="50" height="50" relative="1" as="geometry">
            <mxPoint y="50" as="sourcePoint" />
            <mxPoint x="30" y="50" as="targetPoint" />
          </mxGeometry>
        </mxCell>
        <mxCell id="1EqsSl1_fIFVqMldxpXV-14" value="" style="endArrow=classic;html=1;" edge="1" parent="1EqsSl1_fIFVqMldxpXV-11">
          <mxGeometry width="50" height="50" relative="1" as="geometry">
            <mxPoint y="50" as="sourcePoint" />
            <mxPoint x="20" y="25" as="targetPoint" />
          </mxGeometry>
        </mxCell>
        <mxCell id="1EqsSl1_fIFVqMldxpXV-15" value="imu" style="text;html=1;align=center;verticalAlign=middle;resizable=0;points=[];autosize=1;" vertex="1" parent="1EqsSl1_fIFVqMldxpXV-6">
          <mxGeometry x="-5" width="40" height="20" as="geometry" />
        </mxCell>
        <mxCell id="1EqsSl1_fIFVqMldxpXV-16" value="base_link" style="text;html=1;align=center;verticalAlign=middle;resizable=0;points=[];autosize=1;" vertex="1" parent="1EqsSl1_fIFVqMldxpXV-1">
          <mxGeometry x="35" y="100" width="70" height="20" as="geometry" />
        </mxCell>
        <mxCell id="1EqsSl1_fIFVqMldxpXV-17" value="" style="ellipse;whiteSpace=wrap;html=1;aspect=fixed;" vertex="1" parent="1EqsSl1_fIFVqMldxpXV-1">
          <mxGeometry x="10" y="115" width="30" height="30" as="geometry" />
        </mxCell>
        <mxCell id="1EqsSl1_fIFVqMldxpXV-18" value="" style="ellipse;whiteSpace=wrap;html=1;aspect=fixed;" vertex="1" parent="1EqsSl1_fIFVqMldxpXV-1">
          <mxGeometry x="110" y="115" width="30" height="30" as="geometry" />
        </mxCell>
        <mxCell id="1EqsSl1_fIFVqMldxpXV-19" value="" style="group" vertex="1" connectable="0" parent="1EqsSl1_fIFVqMldxpXV-1">
          <mxGeometry x="20" y="10" width="30" height="30" as="geometry" />
        </mxCell>
        <mxCell id="1EqsSl1_fIFVqMldxpXV-20" value="" style="endArrow=classic;html=1;" edge="1" parent="1EqsSl1_fIFVqMldxpXV-19">
          <mxGeometry width="50" height="50" relative="1" as="geometry">
            <mxPoint y="29.999999999999773" as="sourcePoint" />
            <mxPoint x="30" as="targetPoint" />
          </mxGeometry>
        </mxCell>
        <mxCell id="1EqsSl1_fIFVqMldxpXV-21" value="" style="endArrow=classic;html=1;" edge="1" parent="1EqsSl1_fIFVqMldxpXV-19">
          <mxGeometry width="50" height="50" relative="1" as="geometry">
            <mxPoint y="29.999999999999773" as="sourcePoint" />
            <mxPoint as="targetPoint" />
          </mxGeometry>
        </mxCell>
        <mxCell id="1EqsSl1_fIFVqMldxpXV-22" value="" style="endArrow=classic;html=1;" edge="1" parent="1EqsSl1_fIFVqMldxpXV-19">
          <mxGeometry width="50" height="50" relative="1" as="geometry">
            <mxPoint y="29.999999999999773" as="sourcePoint" />
            <mxPoint x="30" y="30" as="targetPoint" />
          </mxGeometry>
        </mxCell>
        <mxCell id="1EqsSl1_fIFVqMldxpXV-23" value="/uwb_driver_gazebo_node" style="ellipse;whiteSpace=wrap;html=1;" vertex="1" parent="1">
          <mxGeometry x="500" y="380" width="200" height="60" as="geometry" />
        </mxCell>
        <mxCell id="1EqsSl1_fIFVqMldxpXV-24" value="/imu/data" style="rounded=0;whiteSpace=wrap;html=1;" vertex="1" parent="1">
          <mxGeometry x="-330" y="110" width="140" height="50" as="geometry" />
        </mxCell>
        <mxCell id="1EqsSl1_fIFVqMldxpXV-25" value="/gazebo" style="ellipse;whiteSpace=wrap;html=1;" vertex="1" parent="1">
          <mxGeometry x="-190" y="225" width="140" height="60" as="geometry" />
        </mxCell>
        <mxCell id="1EqsSl1_fIFVqMldxpXV-26" value="/ground_truth/state" style="rounded=0;whiteSpace=wrap;html=1;" vertex="1" parent="1">
          <mxGeometry x="70" y="230" width="140" height="50" as="geometry" />
        </mxCell>
        <mxCell id="1EqsSl1_fIFVqMldxpXV-27" value="/groud_truth_to_tf" style="ellipse;whiteSpace=wrap;html=1;" vertex="1" parent="1">
          <mxGeometry x="290" y="225" width="140" height="60" as="geometry" />
        </mxCell>
        <mxCell id="1EqsSl1_fIFVqMldxpXV-28" value="/odom_skid" style="rounded=0;whiteSpace=wrap;html=1;" vertex="1" parent="1">
          <mxGeometry x="-330" y="30" width="140" height="50" as="geometry" />
        </mxCell>
        <mxCell id="1EqsSl1_fIFVqMldxpXV-29" value="" style="group" vertex="1" connectable="0" parent="1">
          <mxGeometry x="510" y="220" width="190" height="80" as="geometry" />
        </mxCell>
        <mxCell id="1EqsSl1_fIFVqMldxpXV-30" value="&lt;br&gt;&lt;br&gt;&lt;br&gt;&lt;br&gt;/ground_truth_to_tf/pose" style="rounded=0;whiteSpace=wrap;html=1;" vertex="1" parent="1EqsSl1_fIFVqMldxpXV-29">
          <mxGeometry width="190" height="80" as="geometry" />
        </mxCell>
        <mxCell id="1EqsSl1_fIFVqMldxpXV-31" value="/ground_truth_to_tf" style="rounded=0;whiteSpace=wrap;html=1;" vertex="1" parent="1EqsSl1_fIFVqMldxpXV-29">
          <mxGeometry width="190" height="40" as="geometry" />
        </mxCell>
        <mxCell id="1EqsSl1_fIFVqMldxpXV-32" value="" style="endArrow=classic;html=1;entryX=0.5;entryY=0;entryDx=0;entryDy=0;exitX=0.438;exitY=0.993;exitDx=0;exitDy=0;exitPerimeter=0;" edge="1" parent="1" source="1EqsSl1_fIFVqMldxpXV-30" target="1EqsSl1_fIFVqMldxpXV-23">
          <mxGeometry width="50" height="50" relative="1" as="geometry">
            <mxPoint x="500" y="360" as="sourcePoint" />
            <mxPoint x="550" y="310" as="targetPoint" />
          </mxGeometry>
        </mxCell>
        <mxCell id="1EqsSl1_fIFVqMldxpXV-33" value="" style="group" vertex="1" connectable="0" parent="1">
          <mxGeometry x="500" y="500" width="190" height="70" as="geometry" />
        </mxCell>
        <mxCell id="1EqsSl1_fIFVqMldxpXV-34" value="&lt;br&gt;&lt;br&gt;&lt;br&gt;&lt;br&gt;/time_domain/full_range_info" style="rounded=0;whiteSpace=wrap;html=1;" vertex="1" parent="1EqsSl1_fIFVqMldxpXV-33">
          <mxGeometry width="190" height="70" as="geometry" />
        </mxCell>
        <mxCell id="1EqsSl1_fIFVqMldxpXV-35" value="/time_domain" style="rounded=0;whiteSpace=wrap;html=1;" vertex="1" parent="1EqsSl1_fIFVqMldxpXV-33">
          <mxGeometry width="190" height="35" as="geometry" />
        </mxCell>
        <mxCell id="1EqsSl1_fIFVqMldxpXV-36" value="" style="endArrow=classic;html=1;exitX=0.454;exitY=0.985;exitDx=0;exitDy=0;exitPerimeter=0;entryX=0.5;entryY=0;entryDx=0;entryDy=0;" edge="1" parent="1" source="1EqsSl1_fIFVqMldxpXV-23" target="1EqsSl1_fIFVqMldxpXV-35">
          <mxGeometry width="50" height="50" relative="1" as="geometry">
            <mxPoint x="603.2199999999998" y="309.44000000000005" as="sourcePoint" />
            <mxPoint x="610" y="400" as="targetPoint" />
          </mxGeometry>
        </mxCell>
        <mxCell id="1EqsSl1_fIFVqMldxpXV-37" value="/slam_pp" style="ellipse;whiteSpace=wrap;html=1;" vertex="1" parent="1">
          <mxGeometry x="140" y="515" width="200" height="55" as="geometry" />
        </mxCell>
        <mxCell id="1EqsSl1_fIFVqMldxpXV-38" value="" style="endArrow=classic;html=1;exitX=0;exitY=0.75;exitDx=0;exitDy=0;entryX=1;entryY=0.5;entryDx=0;entryDy=0;" edge="1" parent="1" source="1EqsSl1_fIFVqMldxpXV-34" target="1EqsSl1_fIFVqMldxpXV-37">
          <mxGeometry width="50" height="50" relative="1" as="geometry">
            <mxPoint x="600.8000000000002" y="459.10000000000014" as="sourcePoint" />
            <mxPoint x="605.06" y="507.375" as="targetPoint" />
          </mxGeometry>
        </mxCell>
        <mxCell id="1EqsSl1_fIFVqMldxpXV-39" value="" style="group" vertex="1" connectable="0" parent="1">
          <mxGeometry x="500" y="600" width="190" height="70" as="geometry" />
        </mxCell>
        <mxCell id="1EqsSl1_fIFVqMldxpXV-40" value="&lt;br&gt;&lt;br&gt;&lt;br&gt;&lt;br&gt;/uav_statte/navigation_state" style="rounded=0;whiteSpace=wrap;html=1;" vertex="1" parent="1EqsSl1_fIFVqMldxpXV-39">
          <mxGeometry width="190" height="70" as="geometry" />
        </mxCell>
        <mxCell id="1EqsSl1_fIFVqMldxpXV-41" value="/uva_stata" style="rounded=0;whiteSpace=wrap;html=1;" vertex="1" parent="1EqsSl1_fIFVqMldxpXV-39">
          <mxGeometry width="190" height="35" as="geometry" />
        </mxCell>
        <mxCell id="1EqsSl1_fIFVqMldxpXV-42" value="" style="endArrow=classic;html=1;exitX=0;exitY=0.75;exitDx=0;exitDy=0;entryX=1;entryY=0.5;entryDx=0;entryDy=0;" edge="1" parent="1" source="1EqsSl1_fIFVqMldxpXV-40" target="1EqsSl1_fIFVqMldxpXV-37">
          <mxGeometry width="50" height="50" relative="1" as="geometry">
            <mxPoint x="510" y="545" as="sourcePoint" />
            <mxPoint x="350" y="545" as="targetPoint" />
          </mxGeometry>
        </mxCell>
        <mxCell id="1EqsSl1_fIFVqMldxpXV-43" value="" style="group" vertex="1" connectable="0" parent="1">
          <mxGeometry x="-270" y="430" width="250" height="162.5" as="geometry" />
        </mxCell>
        <mxCell id="1EqsSl1_fIFVqMldxpXV-44" value="" style="rounded=0;whiteSpace=wrap;html=1;" vertex="1" parent="1EqsSl1_fIFVqMldxpXV-43">
          <mxGeometry width="250" height="162.5" as="geometry" />
        </mxCell>
        <mxCell id="1EqsSl1_fIFVqMldxpXV-45" value="&lt;br&gt;&lt;br&gt;/slam_pp/slam" style="rounded=0;whiteSpace=wrap;html=1;" vertex="1" parent="1EqsSl1_fIFVqMldxpXV-43">
          <mxGeometry width="250" height="86.66666666666666" as="geometry" />
        </mxCell>
        <mxCell id="1EqsSl1_fIFVqMldxpXV-46" value="/slam_pp" style="rounded=0;whiteSpace=wrap;html=1;" vertex="1" parent="1EqsSl1_fIFVqMldxpXV-43">
          <mxGeometry width="184.21052631578945" height="51.704545454545446" as="geometry" />
        </mxCell>
        <mxCell id="1EqsSl1_fIFVqMldxpXV-47" value="&lt;span&gt;/slam_pp/uwb_covariances&lt;/span&gt;" style="rounded=0;whiteSpace=wrap;html=1;" vertex="1" parent="1EqsSl1_fIFVqMldxpXV-43">
          <mxGeometry y="86.66666666666666" width="250" height="35.79710144927536" as="geometry" />
        </mxCell>
        <mxCell id="1EqsSl1_fIFVqMldxpXV-48" value="&lt;span style=&quot;font-family: &amp;#34;helvetica&amp;#34;&quot;&gt;/slam_pp/slam/position_with_covariance&amp;nbsp;&lt;/span&gt;" style="rounded=0;whiteSpace=wrap;html=1;" vertex="1" parent="1EqsSl1_fIFVqMldxpXV-43">
          <mxGeometry y="122.46" width="250" height="37.54" as="geometry" />
        </mxCell>
        <mxCell id="1EqsSl1_fIFVqMldxpXV-49" value="" style="endArrow=classic;html=1;exitX=0;exitY=0.5;exitDx=0;exitDy=0;entryX=1;entryY=0.5;entryDx=0;entryDy=0;" edge="1" parent="1" source="1EqsSl1_fIFVqMldxpXV-37" target="1EqsSl1_fIFVqMldxpXV-47">
          <mxGeometry width="50" height="50" relative="1" as="geometry">
            <mxPoint x="510" y="645" as="sourcePoint" />
            <mxPoint x="349.9999999999998" y="552.5" as="targetPoint" />
          </mxGeometry>
        </mxCell>
        <mxCell id="1EqsSl1_fIFVqMldxpXV-50" value="" style="endArrow=classic;html=1;exitX=0;exitY=0.5;exitDx=0;exitDy=0;entryX=1;entryY=0.5;entryDx=0;entryDy=0;" edge="1" parent="1" source="1EqsSl1_fIFVqMldxpXV-37" target="1EqsSl1_fIFVqMldxpXV-48">
          <mxGeometry width="50" height="50" relative="1" as="geometry">
            <mxPoint x="520" y="655" as="sourcePoint" />
            <mxPoint x="359.9999999999998" y="562.5" as="targetPoint" />
          </mxGeometry>
        </mxCell>
        <mxCell id="1EqsSl1_fIFVqMldxpXV-51" value="发布UWB协方差和位置" style="text;html=1;align=center;verticalAlign=middle;resizable=0;points=[];autosize=1;" vertex="1" parent="1">
          <mxGeometry x="-10" y="510" width="140" height="20" as="geometry" />
        </mxCell>
        <mxCell id="1EqsSl1_fIFVqMldxpXV-52" value="接受uwb的range" style="text;html=1;align=center;verticalAlign=middle;resizable=0;points=[];autosize=1;" vertex="1" parent="1">
          <mxGeometry x="350" y="515" width="110" height="20" as="geometry" />
        </mxCell>
        <mxCell id="1EqsSl1_fIFVqMldxpXV-53" value="接收naviagation_state" style="text;html=1;align=center;verticalAlign=middle;resizable=0;points=[];autosize=1;" vertex="1" parent="1">
          <mxGeometry x="335" y="620" width="140" height="20" as="geometry" />
        </mxCell>
        <mxCell id="1EqsSl1_fIFVqMldxpXV-54" value="/mti/sensor/imu_raw" style="rounded=0;whiteSpace=wrap;html=1;" vertex="1" parent="1">
          <mxGeometry x="-270" y="620" width="140" height="50" as="geometry" />
        </mxCell>
        <mxCell id="1EqsSl1_fIFVqMldxpXV-55" value="/auk/fcu/ekf_state_out" style="rounded=0;whiteSpace=wrap;html=1;" vertex="1" parent="1">
          <mxGeometry x="-270" y="700" width="140" height="50" as="geometry" />
        </mxCell>
        <mxCell id="1EqsSl1_fIFVqMldxpXV-56" value="" style="group" vertex="1" connectable="0" parent="1">
          <mxGeometry x="-270" y="780" width="180" height="160" as="geometry" />
        </mxCell>
        <mxCell id="1EqsSl1_fIFVqMldxpXV-57" value="" style="rounded=0;whiteSpace=wrap;html=1;" vertex="1" parent="1EqsSl1_fIFVqMldxpXV-56">
          <mxGeometry width="180" height="160" as="geometry" />
        </mxCell>
        <mxCell id="1EqsSl1_fIFVqMldxpXV-58" value="/msf_updates" style="rounded=0;whiteSpace=wrap;html=1;" vertex="1" parent="1EqsSl1_fIFVqMldxpXV-56">
          <mxGeometry width="180" height="40" as="geometry" />
        </mxCell>
        <mxCell id="1EqsSl1_fIFVqMldxpXV-59" value="/msf_updates/transform_input" style="rounded=0;whiteSpace=wrap;html=1;" vertex="1" parent="1EqsSl1_fIFVqMldxpXV-56">
          <mxGeometry y="40" width="180" height="40" as="geometry" />
        </mxCell>
        <mxCell id="1EqsSl1_fIFVqMldxpXV-60" value="/msf_updates/position_input" style="rounded=0;whiteSpace=wrap;html=1;" vertex="1" parent="1EqsSl1_fIFVqMldxpXV-56">
          <mxGeometry y="80" width="180" height="40" as="geometry" />
        </mxCell>
        <mxCell id="1EqsSl1_fIFVqMldxpXV-61" value="/msf_updates/navsatfix_input" style="rounded=0;whiteSpace=wrap;html=1;" vertex="1" parent="1EqsSl1_fIFVqMldxpXV-56">
          <mxGeometry y="120" width="180" height="40" as="geometry" />
        </mxCell>
        <mxCell id="1EqsSl1_fIFVqMldxpXV-62" value="/msf_position_filter" style="ellipse;whiteSpace=wrap;html=1;" vertex="1" parent="1">
          <mxGeometry x="-560" y="510" width="200" height="55" as="geometry" />
        </mxCell>
        <mxCell id="1EqsSl1_fIFVqMldxpXV-63" value="/tf" style="shape=cube;whiteSpace=wrap;html=1;boundedLbl=1;backgroundOutline=1;darkOpacity=0.05;darkOpacity2=0.1;" vertex="1" parent="1">
          <mxGeometry x="-540" y="370" width="120" height="80" as="geometry" />
        </mxCell>
        <mxCell id="1EqsSl1_fIFVqMldxpXV-64" value="/world_2_anchor100" style="ellipse;whiteSpace=wrap;html=1;" vertex="1" parent="1">
          <mxGeometry x="-560" y="585" width="200" height="55" as="geometry" />
        </mxCell>
        <mxCell id="1EqsSl1_fIFVqMldxpXV-65" value="/world_2_anchor101" style="ellipse;whiteSpace=wrap;html=1;" vertex="1" parent="1">
          <mxGeometry x="-560" y="670" width="200" height="55" as="geometry" />
        </mxCell>
        <mxCell id="1EqsSl1_fIFVqMldxpXV-66" value="/world_2_anchor102" style="ellipse;whiteSpace=wrap;html=1;" vertex="1" parent="1">
          <mxGeometry x="-560" y="760" width="200" height="55" as="geometry" />
        </mxCell>
        <mxCell id="1EqsSl1_fIFVqMldxpXV-67" value="/world_2_anchor103" style="ellipse;whiteSpace=wrap;html=1;" vertex="1" parent="1">
          <mxGeometry x="-560" y="860" width="200" height="55" as="geometry" />
        </mxCell>
        <mxCell id="1EqsSl1_fIFVqMldxpXV-68" value="" style="curved=1;endArrow=classic;html=1;exitX=0;exitY=0.5;exitDx=0;exitDy=0;entryX=0;entryY=0;entryDx=0;entryDy=30;entryPerimeter=0;" edge="1" parent="1" source="1EqsSl1_fIFVqMldxpXV-62" target="1EqsSl1_fIFVqMldxpXV-63">
          <mxGeometry width="50" height="50" relative="1" as="geometry">
            <mxPoint x="-600" y="530" as="sourcePoint" />
            <mxPoint x="-550" y="480" as="targetPoint" />
            <Array as="points">
              <mxPoint x="-580" y="520" />
              <mxPoint x="-600" y="480" />
            </Array>
          </mxGeometry>
        </mxCell>
        <mxCell id="1EqsSl1_fIFVqMldxpXV-69" value="" style="curved=1;endArrow=classic;html=1;exitX=0;exitY=0.5;exitDx=0;exitDy=0;entryX=0;entryY=0;entryDx=0;entryDy=30;entryPerimeter=0;" edge="1" parent="1" source="1EqsSl1_fIFVqMldxpXV-64" target="1EqsSl1_fIFVqMldxpXV-63">
          <mxGeometry width="50" height="50" relative="1" as="geometry">
            <mxPoint x="-549.9999999999998" y="547.5" as="sourcePoint" />
            <mxPoint x="-530" y="410" as="targetPoint" />
            <Array as="points">
              <mxPoint x="-590" y="490" />
            </Array>
          </mxGeometry>
        </mxCell>
        <mxCell id="1EqsSl1_fIFVqMldxpXV-70" value="" style="curved=1;endArrow=classic;html=1;exitX=0;exitY=0.5;exitDx=0;exitDy=0;entryX=0;entryY=0;entryDx=0;entryDy=30;entryPerimeter=0;" edge="1" parent="1" source="1EqsSl1_fIFVqMldxpXV-65" target="1EqsSl1_fIFVqMldxpXV-63">
          <mxGeometry width="50" height="50" relative="1" as="geometry">
            <mxPoint x="-549.9999999999998" y="622.5" as="sourcePoint" />
            <mxPoint x="-530" y="410" as="targetPoint" />
            <Array as="points">
              <mxPoint x="-610" y="600" />
              <mxPoint x="-600" y="480" />
            </Array>
          </mxGeometry>
        </mxCell>
        <mxCell id="1EqsSl1_fIFVqMldxpXV-71" value="" style="curved=1;endArrow=classic;html=1;exitX=0;exitY=0.364;exitDx=0;exitDy=0;entryX=0;entryY=0;entryDx=0;entryDy=30;entryPerimeter=0;exitPerimeter=0;" edge="1" parent="1" source="1EqsSl1_fIFVqMldxpXV-66" target="1EqsSl1_fIFVqMldxpXV-63">
          <mxGeometry width="50" height="50" relative="1" as="geometry">
            <mxPoint x="-549.9999999999999" y="622.5" as="sourcePoint" />
            <mxPoint x="-530" y="410" as="targetPoint" />
            <Array as="points">
              <mxPoint x="-660" y="630" />
              <mxPoint x="-600" y="490" />
            </Array>
          </mxGeometry>
        </mxCell>
        <mxCell id="1EqsSl1_fIFVqMldxpXV-72" value="" style="curved=1;endArrow=classic;html=1;exitX=0;exitY=0.5;exitDx=0;exitDy=0;entryX=0;entryY=0;entryDx=0;entryDy=30;entryPerimeter=0;" edge="1" parent="1" source="1EqsSl1_fIFVqMldxpXV-67" target="1EqsSl1_fIFVqMldxpXV-63">
          <mxGeometry width="50" height="50" relative="1" as="geometry">
            <mxPoint x="-550" y="790.02" as="sourcePoint" />
            <mxPoint x="-530" y="410" as="targetPoint" />
            <Array as="points">
              <mxPoint x="-670" y="690" />
              <mxPoint x="-590" y="440" />
            </Array>
          </mxGeometry>
        </mxCell>
        <mxCell id="1EqsSl1_fIFVqMldxpXV-73" value="" style="endArrow=classic;html=1;exitX=0;exitY=0.5;exitDx=0;exitDy=0;entryX=1;entryY=0.5;entryDx=0;entryDy=0;" edge="1" parent="1" source="1EqsSl1_fIFVqMldxpXV-54" target="1EqsSl1_fIFVqMldxpXV-62">
          <mxGeometry width="50" height="50" relative="1" as="geometry">
            <mxPoint x="-210" y="611.27" as="sourcePoint" />
            <mxPoint x="-370" y="639.9999999999998" as="targetPoint" />
          </mxGeometry>
        </mxCell>
        <mxCell id="1EqsSl1_fIFVqMldxpXV-74" value="" style="endArrow=classic;html=1;exitX=0;exitY=0.5;exitDx=0;exitDy=0;entryX=1;entryY=0.5;entryDx=0;entryDy=0;" edge="1" parent="1" source="1EqsSl1_fIFVqMldxpXV-55" target="1EqsSl1_fIFVqMldxpXV-62">
          <mxGeometry width="50" height="50" relative="1" as="geometry">
            <mxPoint x="-250" y="665" as="sourcePoint" />
            <mxPoint x="-350" y="547.5" as="targetPoint" />
          </mxGeometry>
        </mxCell>
        <mxCell id="1EqsSl1_fIFVqMldxpXV-75" value="" style="endArrow=classic;html=1;exitX=0;exitY=0.5;exitDx=0;exitDy=0;entryX=1;entryY=0.5;entryDx=0;entryDy=0;" edge="1" parent="1" source="1EqsSl1_fIFVqMldxpXV-59" target="1EqsSl1_fIFVqMldxpXV-62">
          <mxGeometry width="50" height="50" relative="1" as="geometry">
            <mxPoint x="-240" y="675" as="sourcePoint" />
            <mxPoint x="-340" y="557.5" as="targetPoint" />
          </mxGeometry>
        </mxCell>
        <mxCell id="1EqsSl1_fIFVqMldxpXV-76" value="" style="endArrow=classic;html=1;exitX=0;exitY=0.75;exitDx=0;exitDy=0;entryX=1;entryY=0.5;entryDx=0;entryDy=0;" edge="1" parent="1" source="1EqsSl1_fIFVqMldxpXV-60" target="1EqsSl1_fIFVqMldxpXV-62">
          <mxGeometry width="50" height="50" relative="1" as="geometry">
            <mxPoint x="-230" y="685" as="sourcePoint" />
            <mxPoint x="-330" y="567.5" as="targetPoint" />
          </mxGeometry>
        </mxCell>
        <mxCell id="1EqsSl1_fIFVqMldxpXV-77" value="" style="endArrow=classic;html=1;exitX=0;exitY=0.5;exitDx=0;exitDy=0;entryX=1;entryY=0.5;entryDx=0;entryDy=0;" edge="1" parent="1" source="1EqsSl1_fIFVqMldxpXV-61" target="1EqsSl1_fIFVqMldxpXV-62">
          <mxGeometry width="50" height="50" relative="1" as="geometry">
            <mxPoint x="-220" y="695" as="sourcePoint" />
            <mxPoint x="-320" y="577.5" as="targetPoint" />
          </mxGeometry>
        </mxCell>
        <mxCell id="1EqsSl1_fIFVqMldxpXV-78" value="" style="curved=1;endArrow=classic;html=1;exitX=0;exitY=0;exitDx=0;exitDy=0;" edge="1" parent="1" source="1EqsSl1_fIFVqMldxpXV-37" target="1EqsSl1_fIFVqMldxpXV-63">
          <mxGeometry width="50" height="50" relative="1" as="geometry">
            <mxPoint x="50" y="460" as="sourcePoint" />
            <mxPoint x="100" y="410" as="targetPoint" />
            <Array as="points">
              <mxPoint x="100" y="420" />
              <mxPoint x="-10" y="410" />
            </Array>
          </mxGeometry>
        </mxCell>
        <mxCell id="1EqsSl1_fIFVqMldxpXV-79" value="" style="endArrow=classic;html=1;exitX=1;exitY=0.5;exitDx=0;exitDy=0;" edge="1" parent="1" source="1EqsSl1_fIFVqMldxpXV-25" target="1EqsSl1_fIFVqMldxpXV-26">
          <mxGeometry width="50" height="50" relative="1" as="geometry">
            <mxPoint x="210" y="377.5" as="sourcePoint" />
            <mxPoint x="50" y="285" as="targetPoint" />
          </mxGeometry>
        </mxCell>
        <mxCell id="1EqsSl1_fIFVqMldxpXV-80" value="" style="endArrow=classic;html=1;exitX=1;exitY=0.5;exitDx=0;exitDy=0;entryX=0;entryY=0.5;entryDx=0;entryDy=0;" edge="1" parent="1" source="1EqsSl1_fIFVqMldxpXV-26" target="1EqsSl1_fIFVqMldxpXV-27">
          <mxGeometry width="50" height="50" relative="1" as="geometry">
            <mxPoint x="520" y="655" as="sourcePoint" />
            <mxPoint x="360" y="562.5" as="targetPoint" />
          </mxGeometry>
        </mxCell>
        <mxCell id="1EqsSl1_fIFVqMldxpXV-81" value="" style="endArrow=classic;html=1;exitX=1;exitY=0.5;exitDx=0;exitDy=0;entryX=0;entryY=0.75;entryDx=0;entryDy=0;" edge="1" parent="1" source="1EqsSl1_fIFVqMldxpXV-27" target="1EqsSl1_fIFVqMldxpXV-30">
          <mxGeometry width="50" height="50" relative="1" as="geometry">
            <mxPoint x="530" y="665" as="sourcePoint" />
            <mxPoint x="370" y="572.5" as="targetPoint" />
          </mxGeometry>
        </mxCell>
        <mxCell id="1EqsSl1_fIFVqMldxpXV-82" value="&lt;span style=&quot;color: rgb(0, 0, 0); font-family: helvetica; font-size: 12px; font-style: normal; font-weight: 400; letter-spacing: normal; text-align: center; text-indent: 0px; text-transform: none; word-spacing: 0px; background-color: rgb(248, 249, 250); display: inline; float: none;&quot;&gt;节点才能发布tf&lt;/span&gt;" style="text;whiteSpace=wrap;html=1;" vertex="1" parent="1">
          <mxGeometry x="-380" y="410" width="110" height="30" as="geometry" />
        </mxCell>
        <mxCell id="1EqsSl1_fIFVqMldxpXV-83" value="" style="curved=1;endArrow=classic;html=1;exitX=0;exitY=0.5;exitDx=0;exitDy=0;" edge="1" parent="1" source="1EqsSl1_fIFVqMldxpXV-25" target="1EqsSl1_fIFVqMldxpXV-63">
          <mxGeometry width="50" height="50" relative="1" as="geometry">
            <mxPoint x="179.28932188134922" y="533.0545635173712" as="sourcePoint" />
            <mxPoint x="-410" y="420" as="targetPoint" />
            <Array as="points">
              <mxPoint x="-330" y="260" />
              <mxPoint x="-410" y="320" />
            </Array>
          </mxGeometry>
        </mxCell>
        <mxCell id="1EqsSl1_fIFVqMldxpXV-84" value="/ekf_localization" style="ellipse;whiteSpace=wrap;html=1;" vertex="1" parent="1">
          <mxGeometry x="-580" y="70" width="140" height="50" as="geometry" />
        </mxCell>
        <mxCell id="1EqsSl1_fIFVqMldxpXV-85" value="" style="endArrow=classic;html=1;exitX=0;exitY=0.5;exitDx=0;exitDy=0;entryX=1;entryY=0.5;entryDx=0;entryDy=0;" edge="1" parent="1" source="1EqsSl1_fIFVqMldxpXV-28" target="1EqsSl1_fIFVqMldxpXV-84">
          <mxGeometry width="50" height="50" relative="1" as="geometry">
            <mxPoint x="-40" y="265" as="sourcePoint" />
            <mxPoint x="80" y="265" as="targetPoint" />
          </mxGeometry>
        </mxCell>
        <mxCell id="1EqsSl1_fIFVqMldxpXV-86" value="" style="endArrow=classic;html=1;exitX=0;exitY=0.5;exitDx=0;exitDy=0;entryX=1;entryY=0.5;entryDx=0;entryDy=0;" edge="1" parent="1" source="1EqsSl1_fIFVqMldxpXV-24" target="1EqsSl1_fIFVqMldxpXV-84">
          <mxGeometry width="50" height="50" relative="1" as="geometry">
            <mxPoint x="-30" y="275" as="sourcePoint" />
            <mxPoint x="90" y="275" as="targetPoint" />
          </mxGeometry>
        </mxCell>
        <mxCell id="1EqsSl1_fIFVqMldxpXV-87" value="" style="endArrow=classic;html=1;exitX=0.5;exitY=0;exitDx=0;exitDy=0;entryX=1;entryY=1;entryDx=0;entryDy=0;" edge="1" parent="1" source="1EqsSl1_fIFVqMldxpXV-25" target="1EqsSl1_fIFVqMldxpXV-24">
          <mxGeometry width="50" height="50" relative="1" as="geometry">
            <mxPoint x="-40" y="265" as="sourcePoint" />
            <mxPoint x="80" y="265" as="targetPoint" />
          </mxGeometry>
        </mxCell>
        <mxCell id="1EqsSl1_fIFVqMldxpXV-88" value="" style="endArrow=classic;html=1;exitX=0.5;exitY=0;exitDx=0;exitDy=0;entryX=1;entryY=0.5;entryDx=0;entryDy=0;" edge="1" parent="1" source="1EqsSl1_fIFVqMldxpXV-25" target="1EqsSl1_fIFVqMldxpXV-28">
          <mxGeometry width="50" height="50" relative="1" as="geometry">
            <mxPoint x="-30" y="275" as="sourcePoint" />
            <mxPoint x="90" y="275" as="targetPoint" />
          </mxGeometry>
        </mxCell>
        <mxCell id="1EqsSl1_fIFVqMldxpXV-89" value="/odometry/filterd" style="rounded=0;whiteSpace=wrap;html=1;" vertex="1" parent="1">
          <mxGeometry x="-770" y="75" width="140" height="40" as="geometry" />
        </mxCell>
        <mxCell id="1EqsSl1_fIFVqMldxpXV-90" value="" style="endArrow=classic;html=1;exitX=0;exitY=0.5;exitDx=0;exitDy=0;entryX=1;entryY=0.5;entryDx=0;entryDy=0;" edge="1" parent="1" source="1EqsSl1_fIFVqMldxpXV-84" target="1EqsSl1_fIFVqMldxpXV-89">
          <mxGeometry width="50" height="50" relative="1" as="geometry">
            <mxPoint x="-320" y="65" as="sourcePoint" />
            <mxPoint x="-430" y="105" as="targetPoint" />
          </mxGeometry>
        </mxCell>
        <mxCell id="1EqsSl1_fIFVqMldxpXV-91" value="" style="endArrow=classic;html=1;exitX=0.395;exitY=1.019;exitDx=0;exitDy=0;entryX=0.119;entryY=-0.001;entryDx=0;entryDy=0;exitPerimeter=0;entryPerimeter=0;" edge="1" parent="1" source="1EqsSl1_fIFVqMldxpXV-84" target="1EqsSl1_fIFVqMldxpXV-63">
          <mxGeometry width="50" height="50" relative="1" as="geometry">
            <mxPoint x="-320" y="145" as="sourcePoint" />
            <mxPoint x="-430" y="105" as="targetPoint" />
          </mxGeometry>
        </mxCell>
        <mxCell id="1EqsSl1_fIFVqMldxpXV-92" value="" style="endArrow=classic;html=1;exitX=0.257;exitY=0.012;exitDx=0;exitDy=0;entryX=0.5;entryY=1;entryDx=0;entryDy=0;exitPerimeter=0;" edge="1" parent="1" source="1EqsSl1_fIFVqMldxpXV-63" target="1EqsSl1_fIFVqMldxpXV-84">
          <mxGeometry width="50" height="50" relative="1" as="geometry">
            <mxPoint x="-310" y="155" as="sourcePoint" />
            <mxPoint x="-420" y="115" as="targetPoint" />
          </mxGeometry>
        </mxCell>
        <mxCell id="1EqsSl1_fIFVqMldxpXV-93" value="" style="endArrow=classic;html=1;exitX=0;exitY=0.5;exitDx=0;exitDy=0;entryX=1;entryY=0.5;entryDx=0;entryDy=0;" edge="1" parent="1" source="1EqsSl1_fIFVqMldxpXV-48" target="1EqsSl1_fIFVqMldxpXV-62">
          <mxGeometry width="50" height="50" relative="1" as="geometry">
            <mxPoint x="-260" y="655" as="sourcePoint" />
            <mxPoint x="-349.9999999999993" y="547.5" as="targetPoint" />
          </mxGeometry>
        </mxCell>
        <mxCell id="1EqsSl1_fIFVqMldxpXV-94" value="(1)发布groud_truth的节点" style="text;html=1;align=center;verticalAlign=middle;resizable=0;points=[];autosize=1;" vertex="1" parent="1">
          <mxGeometry x="284" y="205" width="160" height="20" as="geometry" />
        </mxCell>
        <mxCell id="1EqsSl1_fIFVqMldxpXV-95" value="(2) 接受groud_truth的pose数据，并发布UWBrange消息" style="text;html=1;align=center;verticalAlign=middle;resizable=0;points=[];autosize=1;" vertex="1" parent="1">
          <mxGeometry x="690" y="400" width="320" height="20" as="geometry" />
        </mxCell>
        <mxCell id="1EqsSl1_fIFVqMldxpXV-96" value="(3) 接受UWB的range消息和navigation_state，并发布UWB协方差和UWB位置" style="text;html=1;align=center;verticalAlign=middle;resizable=0;points=[];autosize=1;" vertex="1" parent="1">
          <mxGeometry x="140" y="460" width="430" height="20" as="geometry" />
        </mxCell>
        <mxCell id="1EqsSl1_fIFVqMldxpXV-97" value="(4) 接受UWB 协方差和位置协方差，并发布TF" style="text;html=1;align=center;verticalAlign=middle;resizable=0;points=[];autosize=1;" vertex="1" parent="1">
          <mxGeometry x="-580" y="480" width="260" height="20" as="geometry" />
        </mxCell>
        <mxCell id="1EqsSl1_fIFVqMldxpXV-98" value="接受来自gazebo的/odom和/imu/data，并发布odom_filtereds" style="text;html=1;align=center;verticalAlign=middle;resizable=0;points=[];autosize=1;" vertex="1" parent="1">
          <mxGeometry x="-685" y="10" width="350" height="20" as="geometry" />
        </mxCell>
        <mxCell id="1EqsSl1_fIFVqMldxpXV-99" value="/uwb_driver_gazebo_node" style="ellipse;whiteSpace=wrap;html=1;" vertex="1" parent="1">
          <mxGeometry x="-570" y="1260" width="200" height="60" as="geometry" />
        </mxCell>
        <mxCell id="1EqsSl1_fIFVqMldxpXV-100" value="" style="strokeWidth=2;html=1;shape=mxgraph.flowchart.annotation_2;align=left;labelPosition=right;pointerEvents=1;" vertex="1" parent="1">
          <mxGeometry x="-630" y="1140" width="50" height="470" as="geometry" />
        </mxCell>
        <mxCell id="1EqsSl1_fIFVqMldxpXV-101" value="/slam_pp" style="ellipse;whiteSpace=wrap;html=1;" vertex="1" parent="1">
          <mxGeometry x="-570" y="1430" width="200" height="55" as="geometry" />
        </mxCell>
        <mxCell id="1EqsSl1_fIFVqMldxpXV-102" value="/groud_truth_to_tf" style="ellipse;whiteSpace=wrap;html=1;" vertex="1" parent="1">
          <mxGeometry x="-540" y="1120" width="140" height="60" as="geometry" />
        </mxCell>
        <mxCell id="1EqsSl1_fIFVqMldxpXV-103" value="/msf_updates" style="ellipse;whiteSpace=wrap;html=1;" vertex="1" parent="1">
          <mxGeometry x="-570" y="1580" width="200" height="55" as="geometry" />
        </mxCell>
        <mxCell id="1EqsSl1_fIFVqMldxpXV-104" value="/slam_pp" style="ellipse;whiteSpace=wrap;html=1;" vertex="1" parent="1">
          <mxGeometry x="-810" y="1910" width="200" height="55" as="geometry" />
        </mxCell>
        <mxCell id="1EqsSl1_fIFVqMldxpXV-105" value="start" style="rounded=0;whiteSpace=wrap;html=1;" vertex="1" parent="1">
          <mxGeometry x="-560" y="1917.5" width="120" height="40" as="geometry" />
        </mxCell>
        <mxCell id="1EqsSl1_fIFVqMldxpXV-106" value="thread_slam" style="rounded=0;whiteSpace=wrap;html=1;" vertex="1" parent="1">
          <mxGeometry x="-380" y="1920" width="120" height="37.5" as="geometry" />
        </mxCell>
        <mxCell id="1EqsSl1_fIFVqMldxpXV-107" value="&lt;div style=&quot;color: rgb(204, 204, 204); background-color: rgb(31, 31, 31); font-family: &amp;quot;jetbrains mono&amp;quot;, &amp;quot;droid sans mono&amp;quot;, &amp;quot;monospace&amp;quot;, monospace; font-weight: normal; font-size: 14px; line-height: 19px;&quot;&gt;&lt;div&gt;&lt;span style=&quot;color: #4ec9b0&quot;&gt;uavos&lt;/span&gt;&lt;span style=&quot;color: #cccccc&quot;&gt;::&lt;/span&gt;&lt;span style=&quot;color: #4ec9b0&quot;&gt;UWB_Localization&lt;/span&gt;&lt;span style=&quot;color: #cccccc&quot;&gt;::&lt;/span&gt;&lt;span style=&quot;color: #dcdcaa&quot;&gt;solveSLAM&lt;/span&gt;&lt;/div&gt;&lt;/div&gt;" style="text;whiteSpace=wrap;html=1;" vertex="1" parent="1">
          <mxGeometry x="-780" y="2030" width="310" height="30" as="geometry" />
        </mxCell>
        <mxCell id="1EqsSl1_fIFVqMldxpXV-108" value="&lt;div style=&quot;color: rgb(204, 204, 204); background-color: rgb(31, 31, 31); font-family: &amp;quot;jetbrains mono&amp;quot;, &amp;quot;droid sans mono&amp;quot;, &amp;quot;monospace&amp;quot;, monospace; font-weight: normal; font-size: 14px; line-height: 19px;&quot;&gt;&lt;div&gt;&lt;span style=&quot;color: #4ec9b0&quot;&gt;uavos&lt;/span&gt;&lt;span style=&quot;color: #cccccc&quot;&gt;::&lt;/span&gt;&lt;span style=&quot;color: #4ec9b0&quot;&gt;SLAM_System&lt;/span&gt;&lt;span style=&quot;color: #cccccc&quot;&gt;::&lt;/span&gt;&lt;span style=&quot;color: #dcdcaa&quot;&gt;visualizeTrajectoryCallback&lt;/span&gt;&lt;/div&gt;&lt;/div&gt;" style="text;whiteSpace=wrap;html=1;" vertex="1" parent="1">
          <mxGeometry x="-410" y="2040" width="420" height="30" as="geometry" />
        </mxCell>
        <mxCell id="1EqsSl1_fIFVqMldxpXV-109" value="UWB_Localization" style="swimlane;fontStyle=1;align=center;verticalAlign=top;childLayout=stackLayout;horizontal=1;startSize=26;horizontalStack=0;resizeParent=1;resizeParentMax=0;resizeLast=0;collapsible=1;marginBottom=0;" vertex="1" parent="1">
          <mxGeometry x="-695" y="2110" width="490" height="216" as="geometry">
            <mxRectangle x="-400" y="2030" width="140" height="26" as="alternateBounds" />
          </mxGeometry>
        </mxCell>
        <mxCell id="1EqsSl1_fIFVqMldxpXV-110" value="+ ros::Subscriber:  m_range_info_sub   " style="text;strokeColor=none;fillColor=none;align=left;verticalAlign=top;spacingLeft=4;spacingRight=4;overflow=hidden;rotatable=0;points=[[0,0.5],[1,0.5]];portConstraint=eastwest;" vertex="1" parent="1EqsSl1_fIFVqMldxpXV-109">
          <mxGeometry y="26" width="490" height="26" as="geometry" />
        </mxCell>
        <mxCell id="1EqsSl1_fIFVqMldxpXV-111" value="+boost::shared_ptr&lt;uavos::UWB_Mobile&gt;:  m_p_mobile" style="text;strokeColor=none;fillColor=none;align=left;verticalAlign=top;spacingLeft=4;spacingRight=4;overflow=hidden;rotatable=0;points=[[0,0.5],[1,0.5]];portConstraint=eastwest;" vertex="1" parent="1EqsSl1_fIFVqMldxpXV-109">
          <mxGeometry y="52" width="490" height="26" as="geometry" />
        </mxCell>
        <mxCell id="1EqsSl1_fIFVqMldxpXV-112" value="+  std::map&lt;int, boost::shared_ptr&lt;uavos::UWB_Anchor&gt; &gt; :  m_anchor_map" style="text;strokeColor=none;fillColor=none;align=left;verticalAlign=top;spacingLeft=4;spacingRight=4;overflow=hidden;rotatable=0;points=[[0,0.5],[1,0.5]];portConstraint=eastwest;" vertex="1" parent="1EqsSl1_fIFVqMldxpXV-109">
          <mxGeometry y="78" width="490" height="26" as="geometry" />
        </mxCell>
        <mxCell id="1EqsSl1_fIFVqMldxpXV-113" value="" style="line;strokeWidth=1;fillColor=none;align=left;verticalAlign=middle;spacingTop=-1;spacingLeft=3;spacingRight=3;rotatable=0;labelPosition=right;points=[];portConstraint=eastwest;" vertex="1" parent="1EqsSl1_fIFVqMldxpXV-109">
          <mxGeometry y="104" width="490" height="8" as="geometry" />
        </mxCell>
        <mxCell id="1EqsSl1_fIFVqMldxpXV-114" value="+ void createUWBMobile:" style="text;strokeColor=none;fillColor=none;align=left;verticalAlign=top;spacingLeft=4;spacingRight=4;overflow=hidden;rotatable=0;points=[[0,0.5],[1,0.5]];portConstraint=eastwest;" vertex="1" parent="1EqsSl1_fIFVqMldxpXV-109">
          <mxGeometry y="112" width="490" height="26" as="geometry" />
        </mxCell>
        <mxCell id="1EqsSl1_fIFVqMldxpXV-115" value="+ void rangeInfoCallback" style="text;strokeColor=none;fillColor=none;align=left;verticalAlign=top;spacingLeft=4;spacingRight=4;overflow=hidden;rotatable=0;points=[[0,0.5],[1,0.5]];portConstraint=eastwest;" vertex="1" parent="1EqsSl1_fIFVqMldxpXV-109">
          <mxGeometry y="138" width="490" height="26" as="geometry" />
        </mxCell>
        <mxCell id="1EqsSl1_fIFVqMldxpXV-116" value="+ void printLocalizationCallback" style="text;strokeColor=none;fillColor=none;align=left;verticalAlign=top;spacingLeft=4;spacingRight=4;overflow=hidden;rotatable=0;points=[[0,0.5],[1,0.5]];portConstraint=eastwest;" vertex="1" parent="1EqsSl1_fIFVqMldxpXV-109">
          <mxGeometry y="164" width="490" height="26" as="geometry" />
        </mxCell>
        <mxCell id="1EqsSl1_fIFVqMldxpXV-117" value="+ void solveSLAM:" style="text;strokeColor=none;fillColor=none;align=left;verticalAlign=top;spacingLeft=4;spacingRight=4;overflow=hidden;rotatable=0;points=[[0,0.5],[1,0.5]];portConstraint=eastwest;" vertex="1" parent="1EqsSl1_fIFVqMldxpXV-109">
          <mxGeometry y="190" width="490" height="26" as="geometry" />
        </mxCell>
        <mxCell id="1EqsSl1_fIFVqMldxpXV-118" value="" style="group" vertex="1" connectable="0" parent="1">
          <mxGeometry x="560" y="1260" width="90" height="80" as="geometry" />
        </mxCell>
        <mxCell id="1EqsSl1_fIFVqMldxpXV-119" value="" style="group" vertex="1" connectable="0" parent="1EqsSl1_fIFVqMldxpXV-118">
          <mxGeometry width="90" height="80" as="geometry" />
        </mxCell>
        <mxCell id="1EqsSl1_fIFVqMldxpXV-120" value="" style="group" vertex="1" connectable="0" parent="1EqsSl1_fIFVqMldxpXV-119">
          <mxGeometry width="90" height="80" as="geometry" />
        </mxCell>
        <mxCell id="1EqsSl1_fIFVqMldxpXV-121" value="" style="group" vertex="1" connectable="0" parent="1EqsSl1_fIFVqMldxpXV-120">
          <mxGeometry width="90" height="80" as="geometry" />
        </mxCell>
        <mxCell id="1EqsSl1_fIFVqMldxpXV-122" value="" style="endArrow=classic;html=1;" edge="1" parent="1EqsSl1_fIFVqMldxpXV-121">
          <mxGeometry width="50" height="50" relative="1" as="geometry">
            <mxPoint y="80" as="sourcePoint" />
            <mxPoint y="30" as="targetPoint" />
          </mxGeometry>
        </mxCell>
        <mxCell id="1EqsSl1_fIFVqMldxpXV-123" value="" style="endArrow=classic;html=1;" edge="1" parent="1EqsSl1_fIFVqMldxpXV-121">
          <mxGeometry width="50" height="50" relative="1" as="geometry">
            <mxPoint y="80" as="sourcePoint" />
            <mxPoint x="60" y="80" as="targetPoint" />
          </mxGeometry>
        </mxCell>
        <mxCell id="1EqsSl1_fIFVqMldxpXV-124" value="" style="endArrow=classic;html=1;" edge="1" parent="1EqsSl1_fIFVqMldxpXV-121">
          <mxGeometry width="50" height="50" relative="1" as="geometry">
            <mxPoint y="80" as="sourcePoint" />
            <mxPoint x="50" y="40" as="targetPoint" />
          </mxGeometry>
        </mxCell>
        <mxCell id="1EqsSl1_fIFVqMldxpXV-125" value="" style="endArrow=classic;html=1;" edge="1" parent="1">
          <mxGeometry width="50" height="50" relative="1" as="geometry">
            <mxPoint x="560" y="1660" as="sourcePoint" />
            <mxPoint x="560" y="1610" as="targetPoint" />
          </mxGeometry>
        </mxCell>
        <mxCell id="1EqsSl1_fIFVqMldxpXV-126" value="" style="endArrow=classic;html=1;" edge="1" parent="1">
          <mxGeometry width="50" height="50" relative="1" as="geometry">
            <mxPoint x="560" y="1660" as="sourcePoint" />
            <mxPoint x="620" y="1660" as="targetPoint" />
          </mxGeometry>
        </mxCell>
        <mxCell id="1EqsSl1_fIFVqMldxpXV-127" value="" style="endArrow=classic;html=1;" edge="1" parent="1">
          <mxGeometry width="50" height="50" relative="1" as="geometry">
            <mxPoint x="560" y="1660" as="sourcePoint" />
            <mxPoint x="610" y="1620" as="targetPoint" />
          </mxGeometry>
        </mxCell>
        <mxCell id="1EqsSl1_fIFVqMldxpXV-128" value="" style="endArrow=none;dashed=1;html=1;" edge="1" parent="1">
          <mxGeometry width="50" height="50" relative="1" as="geometry">
            <mxPoint x="130" y="2000" as="sourcePoint" />
            <mxPoint x="1210" y="1140" as="targetPoint" />
          </mxGeometry>
        </mxCell>
        <mxCell id="1EqsSl1_fIFVqMldxpXV-129" value="" style="endArrow=none;dashed=1;html=1;" edge="1" parent="1">
          <mxGeometry width="50" height="50" relative="1" as="geometry">
            <mxPoint x="210" y="1660" as="sourcePoint" />
            <mxPoint x="1450" y="1660" as="targetPoint" />
          </mxGeometry>
        </mxCell>
        <mxCell id="1EqsSl1_fIFVqMldxpXV-130" value="" style="endArrow=none;dashed=1;html=1;" edge="1" parent="1">
          <mxGeometry width="50" height="50" relative="1" as="geometry">
            <mxPoint x="560" y="2010" as="sourcePoint" />
            <mxPoint x="560" y="850" as="targetPoint" />
          </mxGeometry>
        </mxCell>
        <mxCell id="1EqsSl1_fIFVqMldxpXV-131" value="" style="group" vertex="1" connectable="0" parent="1">
          <mxGeometry x="790" y="1780" width="60" height="50" as="geometry" />
        </mxCell>
        <mxCell id="1EqsSl1_fIFVqMldxpXV-132" value="" style="group" vertex="1" connectable="0" parent="1EqsSl1_fIFVqMldxpXV-131">
          <mxGeometry width="60" height="50" as="geometry" />
        </mxCell>
        <mxCell id="1EqsSl1_fIFVqMldxpXV-133" value="" style="group" vertex="1" connectable="0" parent="1EqsSl1_fIFVqMldxpXV-132">
          <mxGeometry width="60" height="50" as="geometry" />
        </mxCell>
        <mxCell id="1EqsSl1_fIFVqMldxpXV-134" value="" style="endArrow=classic;html=1;" edge="1" parent="1EqsSl1_fIFVqMldxpXV-133">
          <mxGeometry width="50" height="50" relative="1" as="geometry">
            <mxPoint y="50" as="sourcePoint" />
            <mxPoint as="targetPoint" />
          </mxGeometry>
        </mxCell>
        <mxCell id="1EqsSl1_fIFVqMldxpXV-135" value="" style="endArrow=classic;html=1;" edge="1" parent="1EqsSl1_fIFVqMldxpXV-133">
          <mxGeometry width="50" height="50" relative="1" as="geometry">
            <mxPoint y="50" as="sourcePoint" />
            <mxPoint x="60" y="50" as="targetPoint" />
          </mxGeometry>
        </mxCell>
        <mxCell id="1EqsSl1_fIFVqMldxpXV-136" value="" style="endArrow=classic;html=1;" edge="1" parent="1EqsSl1_fIFVqMldxpXV-133">
          <mxGeometry width="50" height="50" relative="1" as="geometry">
            <mxPoint y="50" as="sourcePoint" />
            <mxPoint x="50" y="10" as="targetPoint" />
          </mxGeometry>
        </mxCell>
        <mxCell id="1EqsSl1_fIFVqMldxpXV-137" value="" style="group" vertex="1" connectable="0" parent="1">
          <mxGeometry x="1050" y="1500" width="60" height="50" as="geometry" />
        </mxCell>
        <mxCell id="1EqsSl1_fIFVqMldxpXV-138" value="" style="group" vertex="1" connectable="0" parent="1EqsSl1_fIFVqMldxpXV-137">
          <mxGeometry width="60" height="50" as="geometry" />
        </mxCell>
        <mxCell id="1EqsSl1_fIFVqMldxpXV-139" value="" style="group" vertex="1" connectable="0" parent="1EqsSl1_fIFVqMldxpXV-138">
          <mxGeometry width="60" height="50" as="geometry" />
        </mxCell>
        <mxCell id="1EqsSl1_fIFVqMldxpXV-140" value="" style="endArrow=classic;html=1;" edge="1" parent="1EqsSl1_fIFVqMldxpXV-139">
          <mxGeometry width="50" height="50" relative="1" as="geometry">
            <mxPoint y="50" as="sourcePoint" />
            <mxPoint as="targetPoint" />
          </mxGeometry>
        </mxCell>
        <mxCell id="1EqsSl1_fIFVqMldxpXV-141" value="" style="endArrow=classic;html=1;" edge="1" parent="1EqsSl1_fIFVqMldxpXV-139">
          <mxGeometry width="50" height="50" relative="1" as="geometry">
            <mxPoint y="50" as="sourcePoint" />
            <mxPoint x="60" y="50" as="targetPoint" />
          </mxGeometry>
        </mxCell>
        <mxCell id="1EqsSl1_fIFVqMldxpXV-142" value="" style="endArrow=classic;html=1;" edge="1" parent="1EqsSl1_fIFVqMldxpXV-139">
          <mxGeometry width="50" height="50" relative="1" as="geometry">
            <mxPoint y="50" as="sourcePoint" />
            <mxPoint x="50" y="10" as="targetPoint" />
          </mxGeometry>
        </mxCell>
        <mxCell id="1EqsSl1_fIFVqMldxpXV-143" value="W" style="text;html=1;align=center;verticalAlign=middle;resizable=0;points=[];autosize=1;" vertex="1" parent="1">
          <mxGeometry x="572" y="1674" width="30" height="20" as="geometry" />
        </mxCell>
        <mxCell id="1EqsSl1_fIFVqMldxpXV-144" value="Anchor100" style="text;html=1;align=center;verticalAlign=middle;resizable=0;points=[];autosize=1;" vertex="1" parent="1">
          <mxGeometry x="547" y="1350" width="80" height="20" as="geometry" />
        </mxCell>
        <mxCell id="1EqsSl1_fIFVqMldxpXV-145" value="Anchor101&lt;span style=&quot;color: rgba(0 , 0 , 0 , 0) ; font-family: monospace ; font-size: 0px&quot;&gt;%3CmxGraphModel%3E%3Croot%3E%3CmxCell%20id%3D%220%22%2F%3E%3CmxCell%20id%3D%221%22%20parent%3D%220%22%2F%3E%3CmxCell%20id%3D%222%22%20value%3D%22Anchor100%22%20style%3D%22text%3Bhtml%3D1%3Balign%3Dcenter%3BverticalAlign%3Dmiddle%3Bresizable%3D0%3Bpoints%3D%5B%5D%3Bautosize%3D1%3B%22%20vertex%3D%221%22%20parent%3D%221%22%3E%3CmxGeometry%20x%3D%22547%22%20y%3D%221350%22%20width%3D%2280%22%20height%3D%2220%22%20as%3D%22geometry%22%2F%3E%3C%2FmxCell%3E%3C%2Froot%3E%3C%2FmxGraphModel%3E&lt;/span&gt;" style="text;html=1;align=center;verticalAlign=middle;resizable=0;points=[];autosize=1;" vertex="1" parent="1">
          <mxGeometry x="1030" y="1560" width="80" height="20" as="geometry" />
        </mxCell>
        <mxCell id="1EqsSl1_fIFVqMldxpXV-146" value="Anchor102" style="text;html=1;align=center;verticalAlign=middle;resizable=0;points=[];autosize=1;" vertex="1" parent="1">
          <mxGeometry x="780" y="1840" width="80" height="20" as="geometry" />
        </mxCell>
        <mxCell id="1EqsSl1_fIFVqMldxpXV-147" value="" style="group" vertex="1" connectable="0" parent="1">
          <mxGeometry x="813" y="1090" width="90" height="80" as="geometry" />
        </mxCell>
        <mxCell id="1EqsSl1_fIFVqMldxpXV-148" value="" style="group" vertex="1" connectable="0" parent="1EqsSl1_fIFVqMldxpXV-147">
          <mxGeometry width="90" height="80" as="geometry" />
        </mxCell>
        <mxCell id="1EqsSl1_fIFVqMldxpXV-149" value="" style="group" vertex="1" connectable="0" parent="1EqsSl1_fIFVqMldxpXV-148">
          <mxGeometry width="90" height="80" as="geometry" />
        </mxCell>
        <mxCell id="1EqsSl1_fIFVqMldxpXV-150" value="" style="group" vertex="1" connectable="0" parent="1EqsSl1_fIFVqMldxpXV-149">
          <mxGeometry width="90" height="80" as="geometry" />
        </mxCell>
        <mxCell id="1EqsSl1_fIFVqMldxpXV-151" value="" style="endArrow=classic;html=1;" edge="1" parent="1EqsSl1_fIFVqMldxpXV-150">
          <mxGeometry width="50" height="50" relative="1" as="geometry">
            <mxPoint y="79" as="sourcePoint" />
            <mxPoint y="29" as="targetPoint" />
          </mxGeometry>
        </mxCell>
        <mxCell id="1EqsSl1_fIFVqMldxpXV-152" value="" style="endArrow=classic;html=1;" edge="1" parent="1EqsSl1_fIFVqMldxpXV-150">
          <mxGeometry width="50" height="50" relative="1" as="geometry">
            <mxPoint y="79" as="sourcePoint" />
            <mxPoint x="60" y="79" as="targetPoint" />
          </mxGeometry>
        </mxCell>
        <mxCell id="1EqsSl1_fIFVqMldxpXV-153" value="" style="endArrow=classic;html=1;" edge="1" parent="1EqsSl1_fIFVqMldxpXV-150">
          <mxGeometry width="50" height="50" relative="1" as="geometry">
            <mxPoint y="79" as="sourcePoint" />
            <mxPoint x="50" y="39" as="targetPoint" />
          </mxGeometry>
        </mxCell>
        <mxCell id="1EqsSl1_fIFVqMldxpXV-154" value="Anchor103" style="text;html=1;align=center;verticalAlign=middle;resizable=0;points=[];autosize=1;" vertex="1" parent="1EqsSl1_fIFVqMldxpXV-150">
          <mxGeometry x="5" y="58" width="80" height="20" as="geometry" />
        </mxCell>
        <mxCell id="1EqsSl1_fIFVqMldxpXV-155" value="" style="endArrow=none;dashed=1;html=1;strokeColor=#FF3333;" edge="1" parent="1">
          <mxGeometry width="50" height="50" relative="1" as="geometry">
            <mxPoint x="1130" y="1310" as="sourcePoint" />
            <mxPoint x="820" y="1170" as="targetPoint" />
          </mxGeometry>
        </mxCell>
        <mxCell id="1EqsSl1_fIFVqMldxpXV-156" value="" style="endArrow=none;dashed=1;html=1;strokeColor=#FF3333;" edge="1" parent="1">
          <mxGeometry width="50" height="50" relative="1" as="geometry">
            <mxPoint x="1130" y="1310" as="sourcePoint" />
            <mxPoint x="1050" y="1550" as="targetPoint" />
          </mxGeometry>
        </mxCell>
        <mxCell id="1EqsSl1_fIFVqMldxpXV-157" value="UWB" style="text;html=1;align=center;verticalAlign=middle;resizable=0;points=[];autosize=1;" vertex="1" parent="1">
          <mxGeometry x="1120" y="1230" width="40" height="20" as="geometry" />
        </mxCell>
        <mxCell id="1EqsSl1_fIFVqMldxpXV-158" value="" style="endArrow=none;dashed=1;html=1;strokeColor=#FF3333;" edge="1" parent="1">
          <mxGeometry width="50" height="50" relative="1" as="geometry">
            <mxPoint x="1130" y="1310" as="sourcePoint" />
            <mxPoint x="560" y="1340" as="targetPoint" />
          </mxGeometry>
        </mxCell>
        <mxCell id="1EqsSl1_fIFVqMldxpXV-159" value="`T_{UG}`" style="text;html=1;align=center;verticalAlign=middle;resizable=0;points=[];autosize=1;" vertex="1" parent="1">
          <mxGeometry x="1280" y="1370" width="70" height="20" as="geometry" />
        </mxCell>
        <mxCell id="1EqsSl1_fIFVqMldxpXV-160" value="`T_{IG}`" style="text;html=1;align=center;verticalAlign=middle;resizable=0;points=[];autosize=1;" vertex="1" parent="1">
          <mxGeometry x="1340" y="1370" width="60" height="20" as="geometry" />
        </mxCell>
        <mxCell id="1EqsSl1_fIFVqMldxpXV-161" value="`T_{A_i U}`" style="text;html=1;align=center;verticalAlign=middle;resizable=0;points=[];autosize=1;" vertex="1" parent="1">
          <mxGeometry x="985" y="1356" width="80" height="20" as="geometry" />
        </mxCell>
        <mxCell id="1EqsSl1_fIFVqMldxpXV-162" value="`Ra_{IG}`" style="text;html=1;align=center;verticalAlign=middle;resizable=0;points=[];autosize=1;" vertex="1" parent="1">
          <mxGeometry x="1280" y="1400" width="70" height="20" as="geometry" />
        </mxCell>
        <mxCell id="1EqsSl1_fIFVqMldxpXV-163" value="变换+range" style="text;html=1;align=center;verticalAlign=middle;resizable=0;points=[];autosize=1;" vertex="1" parent="1">
          <mxGeometry x="1290" y="1350" width="80" height="20" as="geometry" />
        </mxCell>
        <mxCell id="1EqsSl1_fIFVqMldxpXV-164" value="TF" style="text;html=1;align=center;verticalAlign=middle;resizable=0;points=[];autosize=1;" vertex="1" parent="1">
          <mxGeometry x="1010" y="1336" width="30" height="20" as="geometry" />
        </mxCell>
        <mxCell id="1EqsSl1_fIFVqMldxpXV-165" value="" style="edgeStyle=orthogonalEdgeStyle;rounded=0;orthogonalLoop=1;jettySize=auto;html=1;" edge="1" parent="1" source="1EqsSl1_fIFVqMldxpXV-166" target="1EqsSl1_fIFVqMldxpXV-168">
          <mxGeometry relative="1" as="geometry" />
        </mxCell>
        <mxCell id="1EqsSl1_fIFVqMldxpXV-166" value="" style="ellipse;whiteSpace=wrap;html=1;aspect=fixed;" vertex="1" parent="1">
          <mxGeometry x="-600" y="2882" width="28" height="28" as="geometry" />
        </mxCell>
        <mxCell id="1EqsSl1_fIFVqMldxpXV-167" value="" style="edgeStyle=orthogonalEdgeStyle;rounded=0;orthogonalLoop=1;jettySize=auto;html=1;" edge="1" parent="1" source="1EqsSl1_fIFVqMldxpXV-168" target="1EqsSl1_fIFVqMldxpXV-170">
          <mxGeometry relative="1" as="geometry" />
        </mxCell>
        <mxCell id="1EqsSl1_fIFVqMldxpXV-168" value="" style="ellipse;whiteSpace=wrap;html=1;aspect=fixed;" vertex="1" parent="1">
          <mxGeometry x="-492" y="2882" width="28" height="28" as="geometry" />
        </mxCell>
        <mxCell id="1EqsSl1_fIFVqMldxpXV-169" value="" style="edgeStyle=orthogonalEdgeStyle;rounded=0;orthogonalLoop=1;jettySize=auto;html=1;" edge="1" parent="1" source="1EqsSl1_fIFVqMldxpXV-170" target="1EqsSl1_fIFVqMldxpXV-172">
          <mxGeometry relative="1" as="geometry" />
        </mxCell>
        <mxCell id="1EqsSl1_fIFVqMldxpXV-170" value="" style="ellipse;whiteSpace=wrap;html=1;aspect=fixed;" vertex="1" parent="1">
          <mxGeometry x="-384" y="2882" width="28" height="28" as="geometry" />
        </mxCell>
        <mxCell id="1EqsSl1_fIFVqMldxpXV-171" value="" style="edgeStyle=orthogonalEdgeStyle;rounded=0;orthogonalLoop=1;jettySize=auto;html=1;" edge="1" parent="1" source="1EqsSl1_fIFVqMldxpXV-172" target="1EqsSl1_fIFVqMldxpXV-173">
          <mxGeometry relative="1" as="geometry" />
        </mxCell>
        <mxCell id="1EqsSl1_fIFVqMldxpXV-172" value="" style="ellipse;whiteSpace=wrap;html=1;aspect=fixed;" vertex="1" parent="1">
          <mxGeometry x="-276" y="2882" width="28" height="28" as="geometry" />
        </mxCell>
        <mxCell id="1EqsSl1_fIFVqMldxpXV-173" value="" style="ellipse;whiteSpace=wrap;html=1;aspect=fixed;" vertex="1" parent="1">
          <mxGeometry x="-168" y="2882" width="28" height="28" as="geometry" />
        </mxCell>
        <mxCell id="1EqsSl1_fIFVqMldxpXV-174" value="" style="endArrow=none;dashed=1;html=1;" edge="1" parent="1">
          <mxGeometry width="50" height="50" relative="1" as="geometry">
            <mxPoint x="-610" y="3280" as="sourcePoint" />
            <mxPoint x="-610" y="2782" as="targetPoint" />
          </mxGeometry>
        </mxCell>
        <mxCell id="1EqsSl1_fIFVqMldxpXV-175" value="" style="endArrow=classic;startArrow=classic;html=1;" edge="1" parent="1">
          <mxGeometry width="50" height="50" relative="1" as="geometry">
            <mxPoint x="-610" y="3002" as="sourcePoint" />
            <mxPoint x="-40" y="3002" as="targetPoint" />
          </mxGeometry>
        </mxCell>
        <mxCell id="1EqsSl1_fIFVqMldxpXV-176" value="&lt;div style=&quot;color: rgb(204 , 204 , 204) ; background-color: rgb(31 , 31 , 31) ; font-family: &amp;#34;jetbrains mono&amp;#34; , &amp;#34;droid sans mono&amp;#34; , &amp;#34;monospace&amp;#34; , monospace ; font-weight: normal ; font-size: 14px ; line-height: 19px&quot;&gt;&lt;div&gt;&lt;span style=&quot;color: #9cdcfe&quot;&gt;uwb_measurement1&lt;/span&gt;&lt;/div&gt;&lt;/div&gt;" style="text;whiteSpace=wrap;html=1;" vertex="1" parent="1">
          <mxGeometry x="-35" y="3170" width="150" height="30" as="geometry" />
        </mxCell>
        <mxCell id="1EqsSl1_fIFVqMldxpXV-177" value="&lt;div style=&quot;color: rgb(204, 204, 204); background-color: rgb(31, 31, 31); font-family: &amp;quot;jetbrains mono&amp;quot;, &amp;quot;droid sans mono&amp;quot;, &amp;quot;monospace&amp;quot;, monospace; font-weight: normal; font-size: 14px; line-height: 19px;&quot;&gt;&lt;div&gt;&lt;span style=&quot;color: #9cdcfe&quot;&gt;imu_buffer&lt;/span&gt;&lt;/div&gt;&lt;/div&gt;" style="text;whiteSpace=wrap;html=1;" vertex="1" parent="1">
          <mxGeometry x="-420" y="2802" width="110" height="30" as="geometry" />
        </mxCell>
        <mxCell id="1EqsSl1_fIFVqMldxpXV-178" value="&lt;div style=&quot;color: rgb(204 , 204 , 204) ; background-color: rgb(31 , 31 , 31) ; font-family: &amp;#34;jetbrains mono&amp;#34; , &amp;#34;droid sans mono&amp;#34; , &amp;#34;monospace&amp;#34; , monospace ; font-weight: normal ; font-size: 14px ; line-height: 19px&quot;&gt;&lt;div&gt;&lt;span style=&quot;color: #cccccc&quot;&gt;last_get_measurement1 = time_uwb1&lt;/span&gt;&lt;/div&gt;&lt;/div&gt;" style="text;whiteSpace=wrap;html=1;" vertex="1" parent="1">
          <mxGeometry x="-55" y="2742" width="190" height="30" as="geometry" />
        </mxCell>
        <mxCell id="1EqsSl1_fIFVqMldxpXV-179" value="" style="endArrow=classic;html=1;entryX=0.5;entryY=0;entryDx=0;entryDy=0;" edge="1" parent="1" target="1EqsSl1_fIFVqMldxpXV-173">
          <mxGeometry width="50" height="50" relative="1" as="geometry">
            <mxPoint x="-154" y="2794" as="sourcePoint" />
            <mxPoint x="-160" y="2841.17" as="targetPoint" />
          </mxGeometry>
        </mxCell>
        <mxCell id="1EqsSl1_fIFVqMldxpXV-180" value="&lt;div style=&quot;color: rgb(204 , 204 , 204) ; background-color: rgb(31 , 31 , 31) ; font-family: &amp;#34;jetbrains mono&amp;#34; , &amp;#34;droid sans mono&amp;#34; , &amp;#34;monospace&amp;#34; , monospace ; font-weight: normal ; font-size: 14px ; line-height: 19px&quot;&gt;&lt;div&gt;&lt;span style=&quot;color: #9cdcfe&quot;&gt;time_uwb1 =&amp;nbsp;&lt;/span&gt;&lt;span style=&quot;font-family: &amp;#34;jetbrains mono&amp;#34; , &amp;#34;droid sans mono&amp;#34; , &amp;#34;monospace&amp;#34; , monospace&quot;&gt;last_get_measurement &lt;/span&gt;&lt;span style=&quot;font-family: &amp;#34;jetbrains mono&amp;#34; , &amp;#34;droid sans mono&amp;#34; , &amp;#34;monospace&amp;#34; , monospace ; color: rgb(212 , 212 , 212)&quot;&gt;+&lt;/span&gt;&lt;span style=&quot;font-family: &amp;#34;jetbrains mono&amp;#34; , &amp;#34;droid sans mono&amp;#34; , &amp;#34;monospace&amp;#34; , monospace&quot;&gt; time_interval_sweep;&lt;/span&gt;&lt;/div&gt;&lt;/div&gt;" style="text;whiteSpace=wrap;html=1;" vertex="1" parent="1">
          <mxGeometry x="-38" y="3100" width="196" height="70" as="geometry" />
        </mxCell>
        <mxCell id="1EqsSl1_fIFVqMldxpXV-181" value="" style="endArrow=classic;html=1;" edge="1" parent="1">
          <mxGeometry width="50" height="50" relative="1" as="geometry">
            <mxPoint x="-586" y="2812" as="sourcePoint" />
            <mxPoint x="-586" y="2882" as="targetPoint" />
          </mxGeometry>
        </mxCell>
        <mxCell id="1EqsSl1_fIFVqMldxpXV-182" value="front" style="text;html=1;align=center;verticalAlign=middle;resizable=0;points=[];autosize=1;" vertex="1" parent="1">
          <mxGeometry x="-570" y="2852" width="40" height="20" as="geometry" />
        </mxCell>
        <mxCell id="1EqsSl1_fIFVqMldxpXV-183" value="end" style="text;html=1;align=center;verticalAlign=middle;resizable=0;points=[];autosize=1;" vertex="1" parent="1">
          <mxGeometry x="-150" y="2840" width="40" height="20" as="geometry" />
        </mxCell>
        <mxCell id="1EqsSl1_fIFVqMldxpXV-184" value="&lt;div style=&quot;color: rgb(204, 204, 204); background-color: rgb(31, 31, 31); font-family: &amp;quot;jetbrains mono&amp;quot;, &amp;quot;droid sans mono&amp;quot;, &amp;quot;monospace&amp;quot;, monospace; font-weight: normal; font-size: 14px; line-height: 19px;&quot;&gt;&lt;div&gt;&lt;span style=&quot;color: #cccccc&quot;&gt;time_interval_sweep&lt;/span&gt;&lt;/div&gt;&lt;/div&gt;" style="text;whiteSpace=wrap;html=1;" vertex="1" parent="1">
          <mxGeometry x="-400" y="3240" width="158" height="30" as="geometry" />
        </mxCell>
        <mxCell id="1EqsSl1_fIFVqMldxpXV-185" value="&lt;div style=&quot;color: rgb(204 , 204 , 204) ; background-color: rgb(31 , 31 , 31) ; font-family: &amp;#34;jetbrains mono&amp;#34; , &amp;#34;droid sans mono&amp;#34; , &amp;#34;monospace&amp;#34; , monospace ; font-weight: normal ; font-size: 14px ; line-height: 19px&quot;&gt;&lt;div&gt;&lt;span style=&quot;color: #9cdcfe&quot;&gt;time_sweep&lt;/span&gt;&lt;span style=&quot;color: #cccccc&quot;&gt;.&lt;/span&gt;&lt;span style=&quot;color: #9cdcfe&quot;&gt;first1&lt;/span&gt;&lt;/div&gt;&lt;/div&gt;" style="text;whiteSpace=wrap;html=1;" vertex="1" parent="1">
          <mxGeometry x="-55" y="2712" width="160" height="30" as="geometry" />
        </mxCell>
        <mxCell id="1EqsSl1_fIFVqMldxpXV-186" value="&lt;b&gt;&lt;font style=&quot;font-size: 19px&quot;&gt;数据同步&lt;/font&gt;&lt;/b&gt;" style="text;html=1;align=center;verticalAlign=middle;resizable=0;points=[];autosize=1;" vertex="1" parent="1">
          <mxGeometry x="-647" y="2690" width="90" height="20" as="geometry" />
        </mxCell>
        <mxCell id="1EqsSl1_fIFVqMldxpXV-187" value="" style="edgeStyle=orthogonalEdgeStyle;rounded=0;orthogonalLoop=1;jettySize=auto;html=1;" edge="1" parent="1" source="1EqsSl1_fIFVqMldxpXV-188" target="1EqsSl1_fIFVqMldxpXV-190">
          <mxGeometry relative="1" as="geometry" />
        </mxCell>
        <mxCell id="1EqsSl1_fIFVqMldxpXV-188" value="" style="ellipse;whiteSpace=wrap;html=1;aspect=fixed;" vertex="1" parent="1">
          <mxGeometry x="10" y="2882" width="28" height="28" as="geometry" />
        </mxCell>
        <mxCell id="1EqsSl1_fIFVqMldxpXV-189" value="" style="edgeStyle=orthogonalEdgeStyle;rounded=0;orthogonalLoop=1;jettySize=auto;html=1;" edge="1" parent="1" source="1EqsSl1_fIFVqMldxpXV-190" target="1EqsSl1_fIFVqMldxpXV-192">
          <mxGeometry relative="1" as="geometry" />
        </mxCell>
        <mxCell id="1EqsSl1_fIFVqMldxpXV-190" value="" style="ellipse;whiteSpace=wrap;html=1;aspect=fixed;" vertex="1" parent="1">
          <mxGeometry x="118" y="2882" width="28" height="28" as="geometry" />
        </mxCell>
        <mxCell id="1EqsSl1_fIFVqMldxpXV-191" value="" style="edgeStyle=orthogonalEdgeStyle;rounded=0;orthogonalLoop=1;jettySize=auto;html=1;" edge="1" parent="1" source="1EqsSl1_fIFVqMldxpXV-192" target="1EqsSl1_fIFVqMldxpXV-194">
          <mxGeometry relative="1" as="geometry" />
        </mxCell>
        <mxCell id="1EqsSl1_fIFVqMldxpXV-192" value="" style="ellipse;whiteSpace=wrap;html=1;aspect=fixed;" vertex="1" parent="1">
          <mxGeometry x="226" y="2882" width="28" height="28" as="geometry" />
        </mxCell>
        <mxCell id="1EqsSl1_fIFVqMldxpXV-193" value="" style="edgeStyle=orthogonalEdgeStyle;rounded=0;orthogonalLoop=1;jettySize=auto;html=1;" edge="1" parent="1" source="1EqsSl1_fIFVqMldxpXV-194" target="1EqsSl1_fIFVqMldxpXV-196">
          <mxGeometry relative="1" as="geometry" />
        </mxCell>
        <mxCell id="1EqsSl1_fIFVqMldxpXV-194" value="" style="ellipse;whiteSpace=wrap;html=1;aspect=fixed;" vertex="1" parent="1">
          <mxGeometry x="334" y="2882" width="28" height="28" as="geometry" />
        </mxCell>
        <mxCell id="1EqsSl1_fIFVqMldxpXV-195" value="" style="edgeStyle=orthogonalEdgeStyle;rounded=0;orthogonalLoop=1;jettySize=auto;html=1;" edge="1" parent="1" source="1EqsSl1_fIFVqMldxpXV-196" target="1EqsSl1_fIFVqMldxpXV-197">
          <mxGeometry relative="1" as="geometry" />
        </mxCell>
        <mxCell id="1EqsSl1_fIFVqMldxpXV-196" value="" style="ellipse;whiteSpace=wrap;html=1;aspect=fixed;" vertex="1" parent="1">
          <mxGeometry x="430" y="2882" width="28" height="28" as="geometry" />
        </mxCell>
        <mxCell id="1EqsSl1_fIFVqMldxpXV-197" value="" style="ellipse;whiteSpace=wrap;html=1;aspect=fixed;" vertex="1" parent="1">
          <mxGeometry x="538" y="2882" width="28" height="28" as="geometry" />
        </mxCell>
        <mxCell id="1EqsSl1_fIFVqMldxpXV-198" value="" style="endArrow=none;dashed=1;html=1;" edge="1" parent="1">
          <mxGeometry width="50" height="50" relative="1" as="geometry">
            <mxPoint x="-42" y="3282" as="sourcePoint" />
            <mxPoint x="-41.69000000000051" y="2782" as="targetPoint" />
          </mxGeometry>
        </mxCell>
        <mxCell id="1EqsSl1_fIFVqMldxpXV-199" value="" style="endArrow=none;dashed=1;html=1;" edge="1" parent="1">
          <mxGeometry width="50" height="50" relative="1" as="geometry">
            <mxPoint x="480" y="3282" as="sourcePoint" />
            <mxPoint x="480" y="2782" as="targetPoint" />
          </mxGeometry>
        </mxCell>
        <mxCell id="1EqsSl1_fIFVqMldxpXV-200" value="" style="endArrow=classic;startArrow=classic;html=1;" edge="1" parent="1">
          <mxGeometry width="50" height="50" relative="1" as="geometry">
            <mxPoint x="-40" y="3002" as="sourcePoint" />
            <mxPoint x="480" y="3002" as="targetPoint" />
          </mxGeometry>
        </mxCell>
        <mxCell id="1EqsSl1_fIFVqMldxpXV-201" value="&lt;div style=&quot;color: rgb(204 , 204 , 204) ; background-color: rgb(31 , 31 , 31) ; font-family: &amp;#34;jetbrains mono&amp;#34; , &amp;#34;droid sans mono&amp;#34; , &amp;#34;monospace&amp;#34; , monospace ; font-weight: normal ; font-size: 14px ; line-height: 19px&quot;&gt;&lt;div&gt;&lt;span style=&quot;color: #9cdcfe&quot;&gt;uwb_measurement2&lt;/span&gt;&lt;/div&gt;&lt;/div&gt;" style="text;whiteSpace=wrap;html=1;" vertex="1" parent="1">
          <mxGeometry x="485" y="3160" width="150" height="30" as="geometry" />
        </mxCell>
        <mxCell id="1EqsSl1_fIFVqMldxpXV-202" value="" style="endArrow=classic;html=1;" edge="1" parent="1">
          <mxGeometry width="50" height="50" relative="1" as="geometry">
            <mxPoint x="443.5" y="2772" as="sourcePoint" />
            <mxPoint x="443.5" y="2882" as="targetPoint" />
          </mxGeometry>
        </mxCell>
        <mxCell id="1EqsSl1_fIFVqMldxpXV-203" value="&lt;div style=&quot;color: rgb(204 , 204 , 204) ; background-color: rgb(31 , 31 , 31) ; font-family: &amp;#34;jetbrains mono&amp;#34; , &amp;#34;droid sans mono&amp;#34; , &amp;#34;monospace&amp;#34; , monospace ; font-weight: normal ; font-size: 14px ; line-height: 19px&quot;&gt;&lt;div&gt;&lt;span style=&quot;color: #9cdcfe&quot;&gt;time_uwb2&lt;/span&gt;&lt;/div&gt;&lt;/div&gt;" style="text;whiteSpace=wrap;html=1;" vertex="1" parent="1">
          <mxGeometry x="485" y="3120" width="100" height="30" as="geometry" />
        </mxCell>
        <mxCell id="1EqsSl1_fIFVqMldxpXV-204" value="" style="endArrow=classic;html=1;" edge="1" parent="1">
          <mxGeometry width="50" height="50" relative="1" as="geometry">
            <mxPoint x="24" y="2792" as="sourcePoint" />
            <mxPoint x="24" y="2882" as="targetPoint" />
          </mxGeometry>
        </mxCell>
        <mxCell id="1EqsSl1_fIFVqMldxpXV-205" value="front" style="text;html=1;align=center;verticalAlign=middle;resizable=0;points=[];autosize=1;" vertex="1" parent="1">
          <mxGeometry x="44" y="2842" width="40" height="20" as="geometry" />
        </mxCell>
        <mxCell id="1EqsSl1_fIFVqMldxpXV-206" value="end" style="text;html=1;align=center;verticalAlign=middle;resizable=0;points=[];autosize=1;" vertex="1" parent="1">
          <mxGeometry x="440" y="2832" width="40" height="20" as="geometry" />
        </mxCell>
        <mxCell id="1EqsSl1_fIFVqMldxpXV-207" value="" style="edgeStyle=orthogonalEdgeStyle;rounded=0;orthogonalLoop=1;jettySize=auto;html=1;entryX=0;entryY=0.5;entryDx=0;entryDy=0;exitX=1;exitY=0.5;exitDx=0;exitDy=0;" edge="1" parent="1" source="1EqsSl1_fIFVqMldxpXV-173" target="1EqsSl1_fIFVqMldxpXV-188">
          <mxGeometry relative="1" as="geometry">
            <mxPoint x="-238" y="2906" as="sourcePoint" />
            <mxPoint x="-158" y="2906" as="targetPoint" />
          </mxGeometry>
        </mxCell>
        <mxCell id="1EqsSl1_fIFVqMldxpXV-208" value="&lt;div style=&quot;color: rgb(204 , 204 , 204) ; background-color: rgb(31 , 31 , 31) ; font-family: &amp;#34;jetbrains mono&amp;#34; , &amp;#34;droid sans mono&amp;#34; , &amp;#34;monospace&amp;#34; , monospace ; font-weight: normal ; font-size: 14px ; line-height: 19px&quot;&gt;&lt;div&gt;&lt;span style=&quot;color: #cccccc&quot;&gt;last_get_measurement2&lt;/span&gt;&lt;/div&gt;&lt;/div&gt;" style="text;whiteSpace=wrap;html=1;" vertex="1" parent="1">
          <mxGeometry x="480" y="2752" width="190" height="30" as="geometry" />
        </mxCell>
        <mxCell id="1EqsSl1_fIFVqMldxpXV-209" value="&lt;div style=&quot;color: rgb(204 , 204 , 204) ; background-color: rgb(31 , 31 , 31) ; font-family: &amp;#34;jetbrains mono&amp;#34; , &amp;#34;droid sans mono&amp;#34; , &amp;#34;monospace&amp;#34; , monospace ; font-weight: normal ; font-size: 14px ; line-height: 19px&quot;&gt;&lt;div&gt;&lt;span style=&quot;color: #9cdcfe&quot;&gt;time_sweep&lt;/span&gt;&lt;span style=&quot;color: #cccccc&quot;&gt;.&lt;/span&gt;&lt;span style=&quot;color: #9cdcfe&quot;&gt;first2&lt;/span&gt;&lt;/div&gt;&lt;/div&gt;" style="text;whiteSpace=wrap;html=1;" vertex="1" parent="1">
          <mxGeometry x="480" y="2722" width="160" height="30" as="geometry" />
        </mxCell>
        <mxCell id="1EqsSl1_fIFVqMldxpXV-210" value="IMU" style="text;html=1;align=center;verticalAlign=middle;resizable=0;points=[];autosize=1;" vertex="1" parent="1">
          <mxGeometry x="-660" y="2890" width="40" height="20" as="geometry" />
        </mxCell>
        <mxCell id="1EqsSl1_fIFVqMldxpXV-211" value="`F_0`" style="text;html=1;align=center;verticalAlign=middle;resizable=0;points=[];autosize=1;fontSize=21;" vertex="1" parent="1">
          <mxGeometry x="-380" y="3340" width="80" height="30" as="geometry" />
        </mxCell>
        <mxCell id="1EqsSl1_fIFVqMldxpXV-212" value="`F_1`" style="text;html=1;align=center;verticalAlign=middle;resizable=0;points=[];autosize=1;fontSize=21;" vertex="1" parent="1">
          <mxGeometry x="200" y="3322" width="80" height="30" as="geometry" />
        </mxCell>
        <mxCell id="1EqsSl1_fIFVqMldxpXV-213" value="&lt;div style=&quot;color: rgb(204 , 204 , 204) ; background-color: rgb(31 , 31 , 31) ; font-family: &amp;#34;jetbrains mono&amp;#34; , &amp;#34;droid sans mono&amp;#34; , &amp;#34;monospace&amp;#34; , monospace ; font-weight: normal ; font-size: 14px ; line-height: 19px&quot;&gt;&lt;div&gt;&lt;span style=&quot;color: #9cdcfe&quot;&gt;measurement&lt;/span&gt;&lt;span style=&quot;color: #cccccc&quot;&gt;.&lt;/span&gt;&lt;span style=&quot;color: #9cdcfe&quot;&gt;time_sweep&lt;/span&gt;&lt;span style=&quot;color: #cccccc&quot;&gt;.&lt;/span&gt;&lt;span style=&quot;color: #9cdcfe&quot;&gt;second&lt;/span&gt;&lt;span style=&quot;color: #cccccc&quot;&gt; &lt;/span&gt;&lt;span style=&quot;color: #d4d4d4&quot;&gt;=&lt;/span&gt;&lt;span style=&quot;color: #cccccc&quot;&gt;&amp;nbsp;&lt;/span&gt;&lt;/div&gt;&lt;div&gt;&lt;span style=&quot;color: #9cdcfe&quot;&gt;measurement&lt;/span&gt;&lt;span style=&quot;color: #cccccc&quot;&gt;.&lt;/span&gt;&lt;span style=&quot;color: #9cdcfe&quot;&gt;time_uwb&lt;/span&gt;&lt;span style=&quot;color: #cccccc&quot;&gt; &lt;/span&gt;&lt;span style=&quot;color: #d4d4d4&quot;&gt;-&lt;/span&gt;&lt;span style=&quot;color: #cccccc&quot;&gt; last_get_measurement;&lt;/span&gt;&lt;/div&gt;&lt;/div&gt;" style="text;whiteSpace=wrap;html=1;fontSize=21;" vertex="1" parent="1">
          <mxGeometry x="110" y="3212" width="281" height="50" as="geometry" />
        </mxCell>
        <mxCell id="1EqsSl1_fIFVqMldxpXV-214" value="&lt;div style=&quot;color: rgb(204 , 204 , 204) ; background-color: rgb(31 , 31 , 31) ; font-family: &amp;#34;jetbrains mono&amp;#34; , &amp;#34;droid sans mono&amp;#34; , &amp;#34;monospace&amp;#34; , monospace ; font-weight: normal ; font-size: 14px ; line-height: 19px&quot;&gt;&lt;div&gt;&lt;span style=&quot;color: #cccccc&quot;&gt;last_get_measurement0=-1&lt;/span&gt;&lt;/div&gt;&lt;/div&gt;" style="text;whiteSpace=wrap;html=1;" vertex="1" parent="1">
          <mxGeometry x="-618" y="2722" width="190" height="30" as="geometry" />
        </mxCell>
        <mxCell id="1EqsSl1_fIFVqMldxpXV-215" value="" style="edgeStyle=orthogonalEdgeStyle;rounded=0;orthogonalLoop=1;jettySize=auto;html=1;" edge="1" parent="1" source="1EqsSl1_fIFVqMldxpXV-216" target="1EqsSl1_fIFVqMldxpXV-218">
          <mxGeometry relative="1" as="geometry" />
        </mxCell>
        <mxCell id="1EqsSl1_fIFVqMldxpXV-216" value="" style="ellipse;whiteSpace=wrap;html=1;aspect=fixed;" vertex="1" parent="1">
          <mxGeometry x="-570" y="3680" width="28" height="28" as="geometry" />
        </mxCell>
        <mxCell id="1EqsSl1_fIFVqMldxpXV-217" value="" style="edgeStyle=orthogonalEdgeStyle;rounded=0;orthogonalLoop=1;jettySize=auto;html=1;" edge="1" parent="1" source="1EqsSl1_fIFVqMldxpXV-218" target="1EqsSl1_fIFVqMldxpXV-220">
          <mxGeometry relative="1" as="geometry" />
        </mxCell>
        <mxCell id="1EqsSl1_fIFVqMldxpXV-218" value="" style="ellipse;whiteSpace=wrap;html=1;aspect=fixed;" vertex="1" parent="1">
          <mxGeometry x="-462" y="3680" width="28" height="28" as="geometry" />
        </mxCell>
        <mxCell id="1EqsSl1_fIFVqMldxpXV-219" value="" style="edgeStyle=orthogonalEdgeStyle;rounded=0;orthogonalLoop=1;jettySize=auto;html=1;" edge="1" parent="1" source="1EqsSl1_fIFVqMldxpXV-220" target="1EqsSl1_fIFVqMldxpXV-222">
          <mxGeometry relative="1" as="geometry" />
        </mxCell>
        <mxCell id="1EqsSl1_fIFVqMldxpXV-220" value="" style="ellipse;whiteSpace=wrap;html=1;aspect=fixed;" vertex="1" parent="1">
          <mxGeometry x="-354" y="3680" width="28" height="28" as="geometry" />
        </mxCell>
        <mxCell id="1EqsSl1_fIFVqMldxpXV-221" value="" style="edgeStyle=orthogonalEdgeStyle;rounded=0;orthogonalLoop=1;jettySize=auto;html=1;" edge="1" parent="1" source="1EqsSl1_fIFVqMldxpXV-222" target="1EqsSl1_fIFVqMldxpXV-224">
          <mxGeometry relative="1" as="geometry" />
        </mxCell>
        <mxCell id="1EqsSl1_fIFVqMldxpXV-222" value="" style="ellipse;whiteSpace=wrap;html=1;aspect=fixed;" vertex="1" parent="1">
          <mxGeometry x="-246" y="3680" width="28" height="28" as="geometry" />
        </mxCell>
        <mxCell id="1EqsSl1_fIFVqMldxpXV-223" value="" style="edgeStyle=orthogonalEdgeStyle;rounded=0;orthogonalLoop=1;jettySize=auto;html=1;" edge="1" parent="1" source="1EqsSl1_fIFVqMldxpXV-224" target="1EqsSl1_fIFVqMldxpXV-226">
          <mxGeometry relative="1" as="geometry" />
        </mxCell>
        <mxCell id="1EqsSl1_fIFVqMldxpXV-224" value="" style="ellipse;whiteSpace=wrap;html=1;aspect=fixed;" vertex="1" parent="1">
          <mxGeometry x="-150" y="3680" width="28" height="28" as="geometry" />
        </mxCell>
        <mxCell id="1EqsSl1_fIFVqMldxpXV-225" value="" style="edgeStyle=orthogonalEdgeStyle;rounded=0;orthogonalLoop=1;jettySize=auto;html=1;fontSize=21;" edge="1" parent="1" source="1EqsSl1_fIFVqMldxpXV-226" target="1EqsSl1_fIFVqMldxpXV-227">
          <mxGeometry relative="1" as="geometry" />
        </mxCell>
        <mxCell id="1EqsSl1_fIFVqMldxpXV-226" value="" style="ellipse;whiteSpace=wrap;html=1;aspect=fixed;" vertex="1" parent="1">
          <mxGeometry x="-42" y="3680" width="28" height="28" as="geometry" />
        </mxCell>
        <mxCell id="1EqsSl1_fIFVqMldxpXV-227" value="" style="ellipse;whiteSpace=wrap;html=1;aspect=fixed;" vertex="1" parent="1">
          <mxGeometry x="66" y="3680" width="28" height="28" as="geometry" />
        </mxCell>
        <mxCell id="1EqsSl1_fIFVqMldxpXV-228" value="" style="endArrow=classic;startArrow=classic;html=1;" edge="1" parent="1">
          <mxGeometry width="50" height="50" relative="1" as="geometry">
            <mxPoint x="-600" y="3790" as="sourcePoint" />
            <mxPoint y="3790" as="targetPoint" />
          </mxGeometry>
        </mxCell>
        <mxCell id="1EqsSl1_fIFVqMldxpXV-229" value="front" style="text;html=1;align=center;verticalAlign=middle;resizable=0;points=[];autosize=1;" vertex="1" parent="1">
          <mxGeometry x="-570" y="3590" width="40" height="20" as="geometry" />
        </mxCell>
        <mxCell id="1EqsSl1_fIFVqMldxpXV-230" value="end" style="text;html=1;align=center;verticalAlign=middle;resizable=0;points=[];autosize=1;" vertex="1" parent="1">
          <mxGeometry x="-60" y="3590" width="40" height="20" as="geometry" />
        </mxCell>
        <mxCell id="1EqsSl1_fIFVqMldxpXV-231" value="" style="endArrow=none;dashed=1;html=1;" edge="1" parent="1">
          <mxGeometry width="50" height="50" relative="1" as="geometry">
            <mxPoint x="-600" y="3830" as="sourcePoint" />
            <mxPoint x="-600" y="3610" as="targetPoint" />
          </mxGeometry>
        </mxCell>
        <mxCell id="1EqsSl1_fIFVqMldxpXV-232" value="" style="endArrow=none;dashed=1;html=1;" edge="1" parent="1">
          <mxGeometry width="50" height="50" relative="1" as="geometry">
            <mxPoint x="-1" y="3840" as="sourcePoint" />
            <mxPoint x="-1" y="3600" as="targetPoint" />
          </mxGeometry>
        </mxCell>
        <mxCell id="1EqsSl1_fIFVqMldxpXV-233" value="" style="ellipse;whiteSpace=wrap;html=1;aspect=fixed;" vertex="1" parent="1">
          <mxGeometry x="-675" y="3680" width="28" height="28" as="geometry" />
        </mxCell>
        <mxCell id="1EqsSl1_fIFVqMldxpXV-234" value="" style="edgeStyle=orthogonalEdgeStyle;rounded=0;orthogonalLoop=1;jettySize=auto;html=1;" edge="1" parent="1">
          <mxGeometry relative="1" as="geometry">
            <mxPoint x="-647" y="3693.66" as="sourcePoint" />
            <mxPoint x="-570" y="3694" as="targetPoint" />
            <Array as="points">
              <mxPoint x="-608" y="3694" />
              <mxPoint x="-600" y="3694" />
            </Array>
          </mxGeometry>
        </mxCell>
        <mxCell id="1EqsSl1_fIFVqMldxpXV-235" value="&lt;div style=&quot;color: rgb(204 , 204 , 204) ; background-color: rgb(31 , 31 , 31) ; font-family: &amp;#34;jetbrains mono&amp;#34; , &amp;#34;droid sans mono&amp;#34; , &amp;#34;monospace&amp;#34; , monospace ; font-weight: normal ; font-size: 14px ; line-height: 19px&quot;&gt;&lt;div&gt;&lt;span style=&quot;color: #cccccc&quot;&gt;last_get_measurement1 = time_uwb1&lt;/span&gt;&lt;/div&gt;&lt;/div&gt;" style="text;whiteSpace=wrap;html=1;" vertex="1" parent="1">
          <mxGeometry x="-604" y="3850" width="190" height="30" as="geometry" />
        </mxCell>
        <mxCell id="1EqsSl1_fIFVqMldxpXV-236" value="其中：time_sweep.first =&amp;nbsp; last_get_measurement&amp;nbsp; = time_uwb&amp;nbsp;" style="text;html=1;align=center;verticalAlign=middle;resizable=0;points=[];autosize=1;fontSize=21;" vertex="1" parent="1">
          <mxGeometry x="420" y="3394" width="620" height="30" as="geometry" />
        </mxCell>
        <mxCell id="1EqsSl1_fIFVqMldxpXV-237" value="&lt;div style=&quot;color: rgb(204 , 204 , 204) ; background-color: rgb(31 , 31 , 31) ; font-family: &amp;#34;jetbrains mono&amp;#34; , &amp;#34;droid sans mono&amp;#34; , &amp;#34;monospace&amp;#34; , monospace ; font-weight: normal ; font-size: 14px ; line-height: 19px&quot;&gt;&lt;div&gt;&lt;span style=&quot;color: #9cdcfe&quot;&gt;time_uwb2&lt;/span&gt;&lt;/div&gt;&lt;/div&gt;" style="text;whiteSpace=wrap;html=1;" vertex="1" parent="1">
          <mxGeometry x="-10" y="3900" width="100" height="30" as="geometry" />
        </mxCell>
        <mxCell id="1EqsSl1_fIFVqMldxpXV-238" value="&lt;div style=&quot;color: rgb(204 , 204 , 204) ; background-color: rgb(31 , 31 , 31) ; font-family: &amp;#34;jetbrains mono&amp;#34; , &amp;#34;droid sans mono&amp;#34; , &amp;#34;monospace&amp;#34; , monospace ; font-weight: normal ; font-size: 14px ; line-height: 19px&quot;&gt;&lt;div&gt;&lt;span style=&quot;color: #cccccc&quot;&gt;last_get_measurement2&lt;/span&gt;&lt;/div&gt;&lt;/div&gt;" style="text;whiteSpace=wrap;html=1;" vertex="1" parent="1">
          <mxGeometry x="-10" y="3870" width="190" height="30" as="geometry" />
        </mxCell>
        <mxCell id="1EqsSl1_fIFVqMldxpXV-239" value="&lt;div style=&quot;color: rgb(204 , 204 , 204) ; background-color: rgb(31 , 31 , 31) ; font-family: &amp;#34;jetbrains mono&amp;#34; , &amp;#34;droid sans mono&amp;#34; , &amp;#34;monospace&amp;#34; , monospace ; font-weight: normal ; font-size: 14px ; line-height: 19px&quot;&gt;&lt;div&gt;&lt;span style=&quot;color: #9cdcfe&quot;&gt;time_sweep&lt;/span&gt;&lt;span style=&quot;color: #cccccc&quot;&gt;.&lt;/span&gt;&lt;span style=&quot;color: #9cdcfe&quot;&gt;first2&lt;/span&gt;&lt;/div&gt;&lt;/div&gt;" style="text;whiteSpace=wrap;html=1;" vertex="1" parent="1">
          <mxGeometry x="-10" y="3840" width="160" height="30" as="geometry" />
        </mxCell>
        <mxCell id="1EqsSl1_fIFVqMldxpXV-240" value="&lt;div style=&quot;color: rgb(204 , 204 , 204) ; background-color: rgb(31 , 31 , 31) ; font-family: &amp;#34;jetbrains mono&amp;#34; , &amp;#34;droid sans mono&amp;#34; , &amp;#34;monospace&amp;#34; , monospace ; font-weight: normal ; font-size: 14px ; line-height: 19px&quot;&gt;&lt;div&gt;&lt;span style=&quot;color: #9cdcfe&quot;&gt;uwb_measurement2&lt;/span&gt;&lt;/div&gt;&lt;/div&gt;" style="text;whiteSpace=wrap;html=1;" vertex="1" parent="1">
          <mxGeometry x="-10" y="3930" width="150" height="30" as="geometry" />
        </mxCell>
        <mxCell id="1EqsSl1_fIFVqMldxpXV-241" value="" style="group" vertex="1" connectable="0" parent="1">
          <mxGeometry x="-614" y="4010" width="164" height="70" as="geometry" />
        </mxCell>
        <mxCell id="1EqsSl1_fIFVqMldxpXV-242" value="" style="rounded=1;whiteSpace=wrap;html=1;fontSize=21;" vertex="1" parent="1EqsSl1_fIFVqMldxpXV-241">
          <mxGeometry width="150" height="70" as="geometry" />
        </mxCell>
        <mxCell id="1EqsSl1_fIFVqMldxpXV-243" value="&lt;div style=&quot;color: rgb(204, 204, 204); background-color: rgb(31, 31, 31); font-family: &amp;quot;jetbrains mono&amp;quot;, &amp;quot;droid sans mono&amp;quot;, &amp;quot;monospace&amp;quot;, monospace; font-weight: normal; font-size: 14px; line-height: 19px;&quot;&gt;&lt;div&gt;&lt;span style=&quot;color: #9cdcfe&quot;&gt;time_sweep_begin&lt;/span&gt;&lt;/div&gt;&lt;/div&gt;" style="text;whiteSpace=wrap;html=1;fontSize=21;" vertex="1" parent="1EqsSl1_fIFVqMldxpXV-241">
          <mxGeometry x="4" y="10" width="160" height="30" as="geometry" />
        </mxCell>
        <mxCell id="1EqsSl1_fIFVqMldxpXV-244" value="&lt;div style=&quot;color: rgb(204, 204, 204); background-color: rgb(31, 31, 31); font-family: &amp;quot;jetbrains mono&amp;quot;, &amp;quot;droid sans mono&amp;quot;, &amp;quot;monospace&amp;quot;, monospace; font-weight: normal; font-size: 14px; line-height: 19px;&quot;&gt;&lt;div&gt;&lt;span style=&quot;color: #9cdcfe&quot;&gt;time_frame_begin&lt;/span&gt;&lt;/div&gt;&lt;/div&gt;" style="text;whiteSpace=wrap;html=1;fontSize=21;" vertex="1" parent="1EqsSl1_fIFVqMldxpXV-241">
          <mxGeometry x="4" y="30" width="160" height="30" as="geometry" />
        </mxCell>
        <mxCell id="1EqsSl1_fIFVqMldxpXV-245" value="" style="group" vertex="1" connectable="0" parent="1">
          <mxGeometry x="-32" y="4010" width="158" height="60" as="geometry" />
        </mxCell>
        <mxCell id="1EqsSl1_fIFVqMldxpXV-246" value="" style="rounded=1;whiteSpace=wrap;html=1;fontSize=21;" vertex="1" parent="1EqsSl1_fIFVqMldxpXV-245">
          <mxGeometry width="150" height="60" as="geometry" />
        </mxCell>
        <mxCell id="1EqsSl1_fIFVqMldxpXV-247" value="&lt;div style=&quot;color: rgb(204, 204, 204); background-color: rgb(31, 31, 31); font-family: &amp;quot;jetbrains mono&amp;quot;, &amp;quot;droid sans mono&amp;quot;, &amp;quot;monospace&amp;quot;, monospace; font-weight: normal; font-size: 14px; line-height: 19px;&quot;&gt;&lt;div&gt;&lt;span style=&quot;color: #9cdcfe&quot;&gt;time_sweep_end&lt;/span&gt;&lt;/div&gt;&lt;/div&gt;" style="text;whiteSpace=wrap;html=1;fontSize=21;" vertex="1" parent="1EqsSl1_fIFVqMldxpXV-245">
          <mxGeometry x="18" width="140" height="30" as="geometry" />
        </mxCell>
        <mxCell id="1EqsSl1_fIFVqMldxpXV-248" value="&lt;div style=&quot;color: rgb(204, 204, 204); background-color: rgb(31, 31, 31); font-family: &amp;quot;jetbrains mono&amp;quot;, &amp;quot;droid sans mono&amp;quot;, &amp;quot;monospace&amp;quot;, monospace; font-weight: normal; font-size: 14px; line-height: 19px;&quot;&gt;&lt;div&gt;&lt;span style=&quot;color: #9cdcfe&quot;&gt;time_frame_end&lt;/span&gt;&lt;/div&gt;&lt;/div&gt;" style="text;whiteSpace=wrap;html=1;fontSize=21;" vertex="1" parent="1EqsSl1_fIFVqMldxpXV-245">
          <mxGeometry x="18" y="30" width="140" height="30" as="geometry" />
        </mxCell>
        <mxCell id="1EqsSl1_fIFVqMldxpXV-249" value="UWBFrame" style="text;html=1;align=center;verticalAlign=middle;resizable=0;points=[];autosize=1;fontSize=21;fontStyle=1" vertex="1" parent="1">
          <mxGeometry x="-356" y="3530" width="130" height="30" as="geometry" />
        </mxCell>
        <mxCell id="1EqsSl1_fIFVqMldxpXV-250" value="" style="edgeStyle=orthogonalEdgeStyle;rounded=0;orthogonalLoop=1;jettySize=auto;html=1;" edge="1" parent="1" source="1EqsSl1_fIFVqMldxpXV-251" target="1EqsSl1_fIFVqMldxpXV-253">
          <mxGeometry relative="1" as="geometry" />
        </mxCell>
        <mxCell id="1EqsSl1_fIFVqMldxpXV-251" value="UWB_Localization" style="rounded=1;whiteSpace=wrap;html=1;" vertex="1" parent="1">
          <mxGeometry x="1025" y="2230" width="130" height="60" as="geometry" />
        </mxCell>
        <mxCell id="1EqsSl1_fIFVqMldxpXV-252" value="" style="edgeStyle=orthogonalEdgeStyle;rounded=0;orthogonalLoop=1;jettySize=auto;html=1;" edge="1" parent="1" source="1EqsSl1_fIFVqMldxpXV-253" target="1EqsSl1_fIFVqMldxpXV-255">
          <mxGeometry relative="1" as="geometry" />
        </mxCell>
        <mxCell id="1EqsSl1_fIFVqMldxpXV-253" value="createUWBMobile" style="rounded=1;whiteSpace=wrap;html=1;" vertex="1" parent="1">
          <mxGeometry x="1025" y="2338" width="130" height="60" as="geometry" />
        </mxCell>
        <mxCell id="1EqsSl1_fIFVqMldxpXV-254" value="" style="edgeStyle=orthogonalEdgeStyle;rounded=0;orthogonalLoop=1;jettySize=auto;html=1;" edge="1" parent="1" source="1EqsSl1_fIFVqMldxpXV-255" target="1EqsSl1_fIFVqMldxpXV-257">
          <mxGeometry relative="1" as="geometry" />
        </mxCell>
        <mxCell id="1EqsSl1_fIFVqMldxpXV-255" value="&lt;div style=&quot;color: rgb(204 , 204 , 204) ; background-color: rgb(31 , 31 , 31) ; font-family: &amp;#34;jetbrains mono&amp;#34; , &amp;#34;droid sans mono&amp;#34; , &amp;#34;monospace&amp;#34; , monospace ; font-size: 14px ; line-height: 19px&quot;&gt;&lt;span style=&quot;color: #dcdcaa&quot;&gt;simpleInitializeEKF&lt;/span&gt;&lt;/div&gt;" style="rounded=1;whiteSpace=wrap;html=1;" vertex="1" parent="1">
          <mxGeometry x="1002.5" y="2450" width="175" height="60" as="geometry" />
        </mxCell>
        <mxCell id="1EqsSl1_fIFVqMldxpXV-256" value="" style="edgeStyle=orthogonalEdgeStyle;rounded=0;orthogonalLoop=1;jettySize=auto;html=1;" edge="1" parent="1" source="1EqsSl1_fIFVqMldxpXV-257" target="1EqsSl1_fIFVqMldxpXV-289">
          <mxGeometry relative="1" as="geometry" />
        </mxCell>
        <mxCell id="1EqsSl1_fIFVqMldxpXV-257" value="&lt;div style=&quot;color: rgb(204 , 204 , 204) ; background-color: rgb(31 , 31 , 31) ; font-family: &amp;#34;jetbrains mono&amp;#34; , &amp;#34;droid sans mono&amp;#34; , &amp;#34;monospace&amp;#34; , monospace ; font-size: 14px ; line-height: 19px&quot;&gt;&lt;div style=&quot;font-family: &amp;#34;jetbrains mono&amp;#34; , &amp;#34;droid sans mono&amp;#34; , &amp;#34;monospace&amp;#34; , monospace ; line-height: 19px&quot;&gt;&lt;span style=&quot;color: #dcdcaa&quot;&gt;rangeInfoCallback&lt;/span&gt;&lt;/div&gt;&lt;/div&gt;" style="rounded=1;whiteSpace=wrap;html=1;" vertex="1" parent="1">
          <mxGeometry x="1002.5" y="2590" width="175" height="60" as="geometry" />
        </mxCell>
        <mxCell id="1EqsSl1_fIFVqMldxpXV-258" value="&lt;font style=&quot;font-size: 18px&quot;&gt;代码整体流程&lt;/font&gt;" style="text;html=1;align=center;verticalAlign=middle;resizable=0;points=[];autosize=1;" vertex="1" parent="1">
          <mxGeometry x="1030" y="2180" width="120" height="20" as="geometry" />
        </mxCell>
        <mxCell id="1EqsSl1_fIFVqMldxpXV-259" value="" style="edgeStyle=orthogonalEdgeStyle;rounded=0;orthogonalLoop=1;jettySize=auto;html=1;" edge="1" parent="1" source="1EqsSl1_fIFVqMldxpXV-260" target="1EqsSl1_fIFVqMldxpXV-262">
          <mxGeometry relative="1" as="geometry" />
        </mxCell>
        <mxCell id="1EqsSl1_fIFVqMldxpXV-260" value="&lt;div style=&quot;color: rgb(204 , 204 , 204) ; background-color: rgb(31 , 31 , 31) ; font-family: &amp;#34;jetbrains mono&amp;#34; , &amp;#34;droid sans mono&amp;#34; , &amp;#34;monospace&amp;#34; , monospace ; font-size: 14px ; line-height: 19px&quot;&gt;&lt;span style=&quot;color: #dcdcaa&quot;&gt;setPosition&lt;/span&gt;&lt;/div&gt;" style="rounded=1;whiteSpace=wrap;html=1;" vertex="1" parent="1">
          <mxGeometry x="740" y="2220.5" width="120" height="60" as="geometry" />
        </mxCell>
        <mxCell id="1EqsSl1_fIFVqMldxpXV-261" value="" style="edgeStyle=orthogonalEdgeStyle;rounded=0;orthogonalLoop=1;jettySize=auto;html=1;" edge="1" parent="1" source="1EqsSl1_fIFVqMldxpXV-262" target="1EqsSl1_fIFVqMldxpXV-264">
          <mxGeometry relative="1" as="geometry" />
        </mxCell>
        <mxCell id="1EqsSl1_fIFVqMldxpXV-262" value="&lt;div style=&quot;color: rgb(204 , 204 , 204) ; background-color: rgb(31 , 31 , 31) ; font-family: &amp;#34;jetbrains mono&amp;#34; , &amp;#34;droid sans mono&amp;#34; , &amp;#34;monospace&amp;#34; , monospace ; font-size: 14px ; line-height: 19px&quot;&gt;&lt;div style=&quot;font-family: &amp;#34;jetbrains mono&amp;#34; , &amp;#34;droid sans mono&amp;#34; , &amp;#34;monospace&amp;#34; , monospace ; line-height: 19px&quot;&gt;&lt;span style=&quot;color: #dcdcaa&quot;&gt;setVelocity&lt;/span&gt;&lt;/div&gt;&lt;/div&gt;" style="rounded=1;whiteSpace=wrap;html=1;" vertex="1" parent="1">
          <mxGeometry x="740" y="2310.5" width="120" height="60" as="geometry" />
        </mxCell>
        <mxCell id="1EqsSl1_fIFVqMldxpXV-263" value="" style="edgeStyle=orthogonalEdgeStyle;rounded=0;orthogonalLoop=1;jettySize=auto;html=1;" edge="1" parent="1" source="1EqsSl1_fIFVqMldxpXV-264" target="1EqsSl1_fIFVqMldxpXV-266">
          <mxGeometry relative="1" as="geometry" />
        </mxCell>
        <mxCell id="1EqsSl1_fIFVqMldxpXV-264" value="&lt;div style=&quot;color: rgb(204 , 204 , 204) ; background-color: rgb(31 , 31 , 31) ; font-family: &amp;#34;jetbrains mono&amp;#34; , &amp;#34;droid sans mono&amp;#34; , &amp;#34;monospace&amp;#34; , monospace ; font-size: 14px ; line-height: 19px&quot;&gt;&lt;div style=&quot;font-family: &amp;#34;jetbrains mono&amp;#34; , &amp;#34;droid sans mono&amp;#34; , &amp;#34;monospace&amp;#34; , monospace ; line-height: 19px&quot;&gt;&lt;div style=&quot;font-family: &amp;#34;jetbrains mono&amp;#34; , &amp;#34;droid sans mono&amp;#34; , &amp;#34;monospace&amp;#34; , monospace ; line-height: 19px&quot;&gt;&lt;span style=&quot;color: #dcdcaa&quot;&gt;setAccelerationBias&lt;/span&gt;&lt;/div&gt;&lt;/div&gt;&lt;/div&gt;" style="rounded=1;whiteSpace=wrap;html=1;" vertex="1" parent="1">
          <mxGeometry x="720" y="2410.5" width="160" height="60" as="geometry" />
        </mxCell>
        <mxCell id="1EqsSl1_fIFVqMldxpXV-265" value="" style="edgeStyle=orthogonalEdgeStyle;rounded=0;orthogonalLoop=1;jettySize=auto;html=1;" edge="1" parent="1" source="1EqsSl1_fIFVqMldxpXV-266" target="1EqsSl1_fIFVqMldxpXV-268">
          <mxGeometry relative="1" as="geometry" />
        </mxCell>
        <mxCell id="1EqsSl1_fIFVqMldxpXV-266" value="&lt;div style=&quot;color: rgb(204 , 204 , 204) ; background-color: rgb(31 , 31 , 31) ; font-family: &amp;#34;jetbrains mono&amp;#34; , &amp;#34;droid sans mono&amp;#34; , &amp;#34;monospace&amp;#34; , monospace ; font-size: 14px ; line-height: 19px&quot;&gt;&lt;div style=&quot;font-family: &amp;#34;jetbrains mono&amp;#34; , &amp;#34;droid sans mono&amp;#34; , &amp;#34;monospace&amp;#34; , monospace ; line-height: 19px&quot;&gt;&lt;div style=&quot;font-family: &amp;#34;jetbrains mono&amp;#34; , &amp;#34;droid sans mono&amp;#34; , &amp;#34;monospace&amp;#34; , monospace ; line-height: 19px&quot;&gt;&lt;div style=&quot;font-family: &amp;#34;jetbrains mono&amp;#34; , &amp;#34;droid sans mono&amp;#34; , &amp;#34;monospace&amp;#34; , monospace ; line-height: 19px&quot;&gt;&lt;span style=&quot;color: #dcdcaa&quot;&gt;setSixStateCovariance&lt;/span&gt;&lt;/div&gt;&lt;/div&gt;&lt;/div&gt;&lt;/div&gt;" style="rounded=1;whiteSpace=wrap;html=1;" vertex="1" parent="1">
          <mxGeometry x="705" y="2500.5" width="190" height="63" as="geometry" />
        </mxCell>
        <mxCell id="1EqsSl1_fIFVqMldxpXV-267" value="" style="edgeStyle=orthogonalEdgeStyle;rounded=0;orthogonalLoop=1;jettySize=auto;html=1;" edge="1" parent="1" source="1EqsSl1_fIFVqMldxpXV-268" target="1EqsSl1_fIFVqMldxpXV-269">
          <mxGeometry relative="1" as="geometry" />
        </mxCell>
        <mxCell id="1EqsSl1_fIFVqMldxpXV-268" value="&lt;div style=&quot;color: rgb(204 , 204 , 204) ; background-color: rgb(31 , 31 , 31) ; font-family: &amp;#34;jetbrains mono&amp;#34; , &amp;#34;droid sans mono&amp;#34; , &amp;#34;monospace&amp;#34; , monospace ; font-size: 14px ; line-height: 19px&quot;&gt;&lt;div style=&quot;font-family: &amp;#34;jetbrains mono&amp;#34; , &amp;#34;droid sans mono&amp;#34; , &amp;#34;monospace&amp;#34; , monospace ; line-height: 19px&quot;&gt;&lt;div style=&quot;font-family: &amp;#34;jetbrains mono&amp;#34; , &amp;#34;droid sans mono&amp;#34; , &amp;#34;monospace&amp;#34; , monospace ; line-height: 19px&quot;&gt;&lt;div style=&quot;font-family: &amp;#34;jetbrains mono&amp;#34; , &amp;#34;droid sans mono&amp;#34; , &amp;#34;monospace&amp;#34; , monospace ; line-height: 19px&quot;&gt;&lt;div style=&quot;font-family: &amp;#34;jetbrains mono&amp;#34; , &amp;#34;droid sans mono&amp;#34; , &amp;#34;monospace&amp;#34; , monospace ; line-height: 19px&quot;&gt;&lt;span style=&quot;color: #dcdcaa&quot;&gt;setNineStateCovariance&lt;/span&gt;&lt;/div&gt;&lt;/div&gt;&lt;/div&gt;&lt;/div&gt;&lt;/div&gt;" style="rounded=1;whiteSpace=wrap;html=1;" vertex="1" parent="1">
          <mxGeometry x="705" y="2587.5" width="190" height="63" as="geometry" />
        </mxCell>
        <mxCell id="1EqsSl1_fIFVqMldxpXV-269" value="&lt;div style=&quot;color: rgb(204 , 204 , 204) ; background-color: rgb(31 , 31 , 31) ; font-family: &amp;#34;jetbrains mono&amp;#34; , &amp;#34;droid sans mono&amp;#34; , &amp;#34;monospace&amp;#34; , monospace ; font-size: 14px ; line-height: 19px&quot;&gt;&lt;div style=&quot;font-family: &amp;#34;jetbrains mono&amp;#34; , &amp;#34;droid sans mono&amp;#34; , &amp;#34;monospace&amp;#34; , monospace ; line-height: 19px&quot;&gt;&lt;div style=&quot;font-family: &amp;#34;jetbrains mono&amp;#34; , &amp;#34;droid sans mono&amp;#34; , &amp;#34;monospace&amp;#34; , monospace ; line-height: 19px&quot;&gt;&lt;div style=&quot;font-family: &amp;#34;jetbrains mono&amp;#34; , &amp;#34;droid sans mono&amp;#34; , &amp;#34;monospace&amp;#34; , monospace ; line-height: 19px&quot;&gt;&lt;div style=&quot;font-family: &amp;#34;jetbrains mono&amp;#34; , &amp;#34;droid sans mono&amp;#34; , &amp;#34;monospace&amp;#34; , monospace ; line-height: 19px&quot;&gt;&lt;span style=&quot;color: rgb(220 , 220 , 170) ; text-align: left&quot;&gt;setRangeInfoToAnchor&lt;/span&gt;&lt;br&gt;&lt;/div&gt;&lt;/div&gt;&lt;/div&gt;&lt;/div&gt;&lt;/div&gt;" style="rounded=1;whiteSpace=wrap;html=1;" vertex="1" parent="1">
          <mxGeometry x="705" y="2689" width="190" height="63" as="geometry" />
        </mxCell>
        <mxCell id="1EqsSl1_fIFVqMldxpXV-270" value="" style="edgeStyle=orthogonalEdgeStyle;rounded=0;orthogonalLoop=1;jettySize=auto;html=1;" edge="1" parent="1" source="1EqsSl1_fIFVqMldxpXV-271" target="1EqsSl1_fIFVqMldxpXV-273">
          <mxGeometry relative="1" as="geometry" />
        </mxCell>
        <mxCell id="1EqsSl1_fIFVqMldxpXV-271" value="&lt;div style=&quot;color: rgb(204 , 204 , 204) ; background-color: rgb(31 , 31 , 31) ; font-family: &amp;#34;jetbrains mono&amp;#34; , &amp;#34;droid sans mono&amp;#34; , &amp;#34;monospace&amp;#34; , monospace ; font-size: 14px ; line-height: 19px&quot;&gt;&lt;span style=&quot;color: #dcdcaa&quot;&gt;filter3DUpdate&lt;/span&gt;&lt;/div&gt;" style="rounded=1;whiteSpace=wrap;html=1;" vertex="1" parent="1">
          <mxGeometry x="1380" y="2431" width="120" height="60" as="geometry" />
        </mxCell>
        <mxCell id="1EqsSl1_fIFVqMldxpXV-272" value="" style="edgeStyle=orthogonalEdgeStyle;rounded=0;orthogonalLoop=1;jettySize=auto;html=1;" edge="1" parent="1" source="1EqsSl1_fIFVqMldxpXV-273" target="1EqsSl1_fIFVqMldxpXV-276">
          <mxGeometry relative="1" as="geometry" />
        </mxCell>
        <mxCell id="1EqsSl1_fIFVqMldxpXV-273" value="&lt;div style=&quot;color: rgb(204 , 204 , 204) ; background-color: rgb(31 , 31 , 31) ; font-family: &amp;#34;jetbrains mono&amp;#34; , &amp;#34;droid sans mono&amp;#34; , &amp;#34;monospace&amp;#34; , monospace ; font-size: 14px ; line-height: 19px&quot;&gt;&lt;div style=&quot;font-family: &amp;#34;jetbrains mono&amp;#34; , &amp;#34;droid sans mono&amp;#34; , &amp;#34;monospace&amp;#34; , monospace ; line-height: 19px&quot;&gt;&lt;span style=&quot;color: #dcdcaa&quot;&gt;getStablizationFlag&lt;/span&gt;&lt;/div&gt;&lt;/div&gt;" style="rounded=1;whiteSpace=wrap;html=1;" vertex="1" parent="1">
          <mxGeometry x="1355" y="2524" width="170" height="60" as="geometry" />
        </mxCell>
        <mxCell id="1EqsSl1_fIFVqMldxpXV-274" value="" style="edgeStyle=orthogonalEdgeStyle;rounded=0;orthogonalLoop=1;jettySize=auto;html=1;" edge="1" parent="1" source="1EqsSl1_fIFVqMldxpXV-276" target="1EqsSl1_fIFVqMldxpXV-278">
          <mxGeometry relative="1" as="geometry" />
        </mxCell>
        <mxCell id="1EqsSl1_fIFVqMldxpXV-275" value="" style="edgeStyle=orthogonalEdgeStyle;rounded=0;orthogonalLoop=1;jettySize=auto;html=1;" edge="1" parent="1" source="1EqsSl1_fIFVqMldxpXV-276" target="1EqsSl1_fIFVqMldxpXV-279">
          <mxGeometry relative="1" as="geometry" />
        </mxCell>
        <mxCell id="1EqsSl1_fIFVqMldxpXV-276" value="&lt;div style=&quot;color: rgb(204, 204, 204); background-color: rgb(31, 31, 31); font-family: &amp;quot;jetbrains mono&amp;quot;, &amp;quot;droid sans mono&amp;quot;, &amp;quot;monospace&amp;quot;, monospace; font-weight: normal; font-size: 14px; line-height: 19px;&quot;&gt;&lt;div&gt;&lt;span style=&quot;color: #dcdcaa&quot;&gt;setPositionVelocityWorldCurrNWU&lt;/span&gt;&lt;/div&gt;&lt;/div&gt;" style="rounded=1;whiteSpace=wrap;html=1;" vertex="1" parent="1">
          <mxGeometry x="1308.75" y="2624" width="262.5" height="60" as="geometry" />
        </mxCell>
        <mxCell id="1EqsSl1_fIFVqMldxpXV-277" value="" style="edgeStyle=orthogonalEdgeStyle;rounded=0;orthogonalLoop=1;jettySize=auto;html=1;" edge="1" parent="1" source="1EqsSl1_fIFVqMldxpXV-278" target="1EqsSl1_fIFVqMldxpXV-281">
          <mxGeometry relative="1" as="geometry" />
        </mxCell>
        <mxCell id="1EqsSl1_fIFVqMldxpXV-278" value="&lt;div style=&quot;color: rgb(204 , 204 , 204) ; background-color: rgb(31 , 31 , 31) ; font-family: &amp;#34;jetbrains mono&amp;#34; , &amp;#34;droid sans mono&amp;#34; , &amp;#34;monospace&amp;#34; , monospace ; font-weight: normal ; font-size: 14px ; line-height: 19px&quot;&gt;&lt;div style=&quot;font-family: &amp;#34;jetbrains mono&amp;#34; , &amp;#34;droid sans mono&amp;#34; , &amp;#34;monospace&amp;#34; , monospace ; line-height: 19px&quot;&gt;&lt;span style=&quot;color: #dcdcaa&quot;&gt;setPositionCovarianceWorldCurrNWU&lt;/span&gt;&lt;/div&gt;&lt;/div&gt;" style="rounded=1;whiteSpace=wrap;html=1;" vertex="1" parent="1">
          <mxGeometry x="1300" y="2714" width="281.25" height="60" as="geometry" />
        </mxCell>
        <mxCell id="1EqsSl1_fIFVqMldxpXV-279" value="&lt;div style=&quot;color: rgb(204, 204, 204); background-color: rgb(31, 31, 31); font-family: &amp;quot;jetbrains mono&amp;quot;, &amp;quot;droid sans mono&amp;quot;, &amp;quot;monospace&amp;quot;, monospace; font-weight: normal; font-size: 14px; line-height: 19px;&quot;&gt;&lt;div&gt;&lt;span style=&quot;color: #9cdcfe&quot;&gt;m_measured_position_pub&lt;/span&gt;&lt;/div&gt;&lt;/div&gt;" style="text;whiteSpace=wrap;html=1;" vertex="1" parent="1">
          <mxGeometry x="1640" y="2639" width="220" height="30" as="geometry" />
        </mxCell>
        <mxCell id="1EqsSl1_fIFVqMldxpXV-280" value="" style="group" vertex="1" connectable="0" parent="1">
          <mxGeometry x="1640" y="2699" width="490" height="170" as="geometry" />
        </mxCell>
        <mxCell id="1EqsSl1_fIFVqMldxpXV-281" value="" style="rounded=1;whiteSpace=wrap;html=1;" vertex="1" parent="1EqsSl1_fIFVqMldxpXV-280">
          <mxGeometry width="470" height="170" as="geometry" />
        </mxCell>
        <mxCell id="1EqsSl1_fIFVqMldxpXV-282" value="&lt;div style=&quot;color: rgb(204, 204, 204); background-color: rgb(31, 31, 31); font-family: &amp;quot;jetbrains mono&amp;quot;, &amp;quot;droid sans mono&amp;quot;, &amp;quot;monospace&amp;quot;, monospace; font-weight: normal; font-size: 14px; line-height: 19px;&quot;&gt;&lt;div&gt;&lt;span style=&quot;color: #9cdcfe&quot;&gt;m_measured_position_velocity_pub&lt;/span&gt;&lt;span style=&quot;color: #cccccc&quot;&gt;.&lt;/span&gt;&lt;span style=&quot;color: #dcdcaa&quot;&gt;publish&lt;/span&gt;&lt;span style=&quot;color: #cccccc&quot;&gt;(mea_pos_vel);&lt;/span&gt;&lt;/div&gt;&lt;/div&gt;" style="text;whiteSpace=wrap;html=1;" vertex="1" parent="1EqsSl1_fIFVqMldxpXV-280">
          <mxGeometry x="10" y="3" width="480" height="30" as="geometry" />
        </mxCell>
        <mxCell id="1EqsSl1_fIFVqMldxpXV-283" value="&lt;div style=&quot;color: rgb(204, 204, 204); background-color: rgb(31, 31, 31); font-family: &amp;quot;jetbrains mono&amp;quot;, &amp;quot;droid sans mono&amp;quot;, &amp;quot;monospace&amp;quot;, monospace; font-weight: normal; font-size: 14px; line-height: 19px;&quot;&gt;&lt;div&gt;&lt;span style=&quot;color: #9cdcfe&quot;&gt;m_position_input_pub&lt;/span&gt;&lt;span style=&quot;color: #cccccc&quot;&gt;.&lt;/span&gt;&lt;span style=&quot;color: #dcdcaa&quot;&gt;publish&lt;/span&gt;&lt;span style=&quot;color: #cccccc&quot;&gt;(position_input);&lt;/span&gt;&lt;/div&gt;&lt;/div&gt;" style="text;whiteSpace=wrap;html=1;" vertex="1" parent="1EqsSl1_fIFVqMldxpXV-280">
          <mxGeometry x="10" y="40" width="400" height="30" as="geometry" />
        </mxCell>
        <mxCell id="1EqsSl1_fIFVqMldxpXV-284" value="&lt;div style=&quot;color: rgb(204, 204, 204); background-color: rgb(31, 31, 31); font-family: &amp;quot;jetbrains mono&amp;quot;, &amp;quot;droid sans mono&amp;quot;, &amp;quot;monospace&amp;quot;, monospace; font-weight: normal; font-size: 14px; line-height: 19px;&quot;&gt;&lt;div&gt;&lt;span style=&quot;color: #cccccc&quot;&gt; &lt;/span&gt;&lt;span style=&quot;color: #9cdcfe&quot;&gt;m_pose_input_pub&lt;/span&gt;&lt;span style=&quot;color: #cccccc&quot;&gt;.&lt;/span&gt;&lt;span style=&quot;color: #dcdcaa&quot;&gt;publish&lt;/span&gt;&lt;span style=&quot;color: #cccccc&quot;&gt;(pose_input);&lt;/span&gt;&lt;/div&gt;&lt;/div&gt;" style="text;whiteSpace=wrap;html=1;" vertex="1" parent="1EqsSl1_fIFVqMldxpXV-280">
          <mxGeometry x="10" y="75" width="340" height="30" as="geometry" />
        </mxCell>
        <mxCell id="1EqsSl1_fIFVqMldxpXV-285" value="&lt;div style=&quot;color: rgb(204, 204, 204); background-color: rgb(31, 31, 31); font-family: &amp;quot;jetbrains mono&amp;quot;, &amp;quot;droid sans mono&amp;quot;, &amp;quot;monospace&amp;quot;, monospace; font-weight: normal; font-size: 14px; line-height: 19px;&quot;&gt;&lt;div&gt;&lt;span style=&quot;color: #9cdcfe&quot;&gt;m_transform_input_pub&lt;/span&gt;&lt;span style=&quot;color: #cccccc&quot;&gt;.&lt;/span&gt;&lt;span style=&quot;color: #dcdcaa&quot;&gt;publish&lt;/span&gt;&lt;span style=&quot;color: #cccccc&quot;&gt;(transform_input);&lt;/span&gt;&lt;/div&gt;&lt;/div&gt;" style="text;whiteSpace=wrap;html=1;" vertex="1" parent="1EqsSl1_fIFVqMldxpXV-280">
          <mxGeometry x="10" y="105.5" width="420" height="30" as="geometry" />
        </mxCell>
        <mxCell id="1EqsSl1_fIFVqMldxpXV-286" value="&lt;div style=&quot;color: rgb(204, 204, 204); background-color: rgb(31, 31, 31); font-family: &amp;quot;jetbrains mono&amp;quot;, &amp;quot;droid sans mono&amp;quot;, &amp;quot;monospace&amp;quot;, monospace; font-weight: normal; font-size: 14px; line-height: 19px;&quot;&gt;&lt;div&gt;&lt;span style=&quot;color: #9cdcfe&quot;&gt;m_covariances_publisher&lt;/span&gt;&lt;span style=&quot;color: #cccccc&quot;&gt;.&lt;/span&gt;&lt;span style=&quot;color: #dcdcaa&quot;&gt;publish&lt;/span&gt;&lt;span style=&quot;color: #cccccc&quot;&gt;(marker);&lt;/span&gt;&lt;/div&gt;&lt;/div&gt;" style="text;whiteSpace=wrap;html=1;" vertex="1" parent="1EqsSl1_fIFVqMldxpXV-280">
          <mxGeometry x="10" y="135.5" width="360" height="30" as="geometry" />
        </mxCell>
        <mxCell id="1EqsSl1_fIFVqMldxpXV-287" value="" style="strokeWidth=2;html=1;shape=mxgraph.flowchart.annotation_2;align=left;labelPosition=right;pointerEvents=1;" vertex="1" parent="1">
          <mxGeometry x="1260" y="2446" width="30" height="323" as="geometry" />
        </mxCell>
        <mxCell id="1EqsSl1_fIFVqMldxpXV-288" value="&lt;div style=&quot;color: rgb(204 , 204 , 204) ; background-color: rgb(31 , 31 , 31) ; font-family: &amp;#34;jetbrains mono&amp;#34; , &amp;#34;droid sans mono&amp;#34; , &amp;#34;monospace&amp;#34; , monospace ; font-weight: normal ; font-size: 14px ; line-height: 19px&quot;&gt;&lt;br&gt;&lt;/div&gt;" style="text;whiteSpace=wrap;html=1;" vertex="1" parent="1">
          <mxGeometry x="700" y="2752" width="240" height="30" as="geometry" />
        </mxCell>
        <mxCell id="1EqsSl1_fIFVqMldxpXV-289" value="&lt;span style=&quot;color: rgb(220 , 220 , 170) ; font-family: &amp;#34;jetbrains mono&amp;#34; , &amp;#34;droid sans mono&amp;#34; , &amp;#34;monospace&amp;#34; , monospace ; font-size: 14px ; text-align: left ; background-color: rgb(31 , 31 , 31)&quot;&gt;printLocalizationCallback&lt;/span&gt;" style="rounded=1;whiteSpace=wrap;html=1;" vertex="1" parent="1">
          <mxGeometry x="975" y="2694" width="230" height="48" as="geometry" />
        </mxCell>
        <mxCell id="1EqsSl1_fIFVqMldxpXV-290" value="" style="strokeWidth=2;html=1;shape=mxgraph.flowchart.annotation_2;align=left;labelPosition=right;pointerEvents=1;rotation=-180;" vertex="1" parent="1">
          <mxGeometry x="903" y="2249" width="20" height="473" as="geometry" />
        </mxCell>
        <mxCell id="1EqsSl1_fIFVqMldxpXV-291" value="&lt;font style=&quot;font-size: 20px;&quot;&gt;uwb的数据流&lt;/font&gt;" style="text;html=1;align=center;verticalAlign=middle;resizable=0;points=[];autosize=1;strokeColor=none;fillColor=none;" vertex="1" parent="1">
          <mxGeometry x="490" y="3450" width="140" height="40" as="geometry" />
        </mxCell>
        <mxCell id="1EqsSl1_fIFVqMldxpXV-292" value="&lt;div style=&quot;color: #cccccc;background-color: #1f1f1f;font-family: &#39;JetBrains Mono&#39;, &#39;Droid Sans Mono&#39;, &#39;monospace&#39;, monospace;font-weight: normal;font-size: 14px;line-height: 19px;white-space: pre;&quot;&gt;&lt;div&gt;&lt;span style=&quot;color: #dcdcaa;&quot;&gt;processIMU&lt;/span&gt;&lt;/div&gt;&lt;/div&gt;" style="text;whiteSpace=wrap;html=1;" vertex="1" parent="1">
          <mxGeometry x="627" y="3835" width="88" height="30" as="geometry" />
        </mxCell>
        <mxCell id="1EqsSl1_fIFVqMldxpXV-293" value="&lt;div style=&quot;color: #cccccc;background-color: #1f1f1f;font-family: &#39;JetBrains Mono&#39;, &#39;Droid Sans Mono&#39;, &#39;monospace&#39;, monospace;font-weight: normal;font-size: 14px;line-height: 19px;white-space: pre;&quot;&gt;&lt;div&gt;&lt;span style=&quot;color: #cccccc;&quot;&gt;    &lt;/span&gt;&lt;span style=&quot;color: #9cdcfe;&quot;&gt;m_pred_rotation&lt;/span&gt;&lt;span style=&quot;color: #cccccc;&quot;&gt; &lt;/span&gt;&lt;span style=&quot;color: #dcdcaa;&quot;&gt;*=&lt;/span&gt;&lt;span style=&quot;color: #cccccc;&quot;&gt; &lt;/span&gt;&lt;span style=&quot;color: #4ec9b0;&quot;&gt;Utility&lt;/span&gt;&lt;span style=&quot;color: #cccccc;&quot;&gt;::&lt;/span&gt;&lt;span style=&quot;color: #dcdcaa;&quot;&gt;deltaQ&lt;/span&gt;&lt;span style=&quot;color: #cccccc;&quot;&gt;(&lt;/span&gt;&lt;span style=&quot;color: #9cdcfe;&quot;&gt;un_gyr&lt;/span&gt;&lt;span style=&quot;color: #cccccc;&quot;&gt; &lt;/span&gt;&lt;span style=&quot;color: #dcdcaa;&quot;&gt;*&lt;/span&gt;&lt;span style=&quot;color: #cccccc;&quot;&gt; &lt;/span&gt;&lt;span style=&quot;color: #9cdcfe;&quot;&gt;dt&lt;/span&gt;&lt;span style=&quot;color: #cccccc;&quot;&gt;).&lt;/span&gt;&lt;span style=&quot;color: #dcdcaa;&quot;&gt;toRotationMatrix&lt;/span&gt;&lt;span style=&quot;color: #cccccc;&quot;&gt;();&lt;/span&gt;&lt;/div&gt;&lt;div&gt;&lt;br&gt;&lt;/div&gt;&lt;div&gt;&lt;span style=&quot;color: #cccccc;&quot;&gt;    &lt;/span&gt;&lt;span style=&quot;color: #9cdcfe;&quot;&gt;m_pred_position&lt;/span&gt;&lt;span style=&quot;color: #cccccc;&quot;&gt; &lt;/span&gt;&lt;span style=&quot;color: #dcdcaa;&quot;&gt;+=&lt;/span&gt;&lt;span style=&quot;color: #cccccc;&quot;&gt; &lt;/span&gt;&lt;span style=&quot;color: #9cdcfe;&quot;&gt;dt&lt;/span&gt;&lt;span style=&quot;color: #cccccc;&quot;&gt; &lt;/span&gt;&lt;span style=&quot;color: #dcdcaa;&quot;&gt;*&lt;/span&gt;&lt;span style=&quot;color: #cccccc;&quot;&gt; &lt;/span&gt;&lt;span style=&quot;color: #9cdcfe;&quot;&gt;m_pred_velocity&lt;/span&gt;&lt;span style=&quot;color: #cccccc;&quot;&gt; &lt;/span&gt;&lt;span style=&quot;color: #dcdcaa;&quot;&gt;+&lt;/span&gt;&lt;span style=&quot;color: #cccccc;&quot;&gt; &lt;/span&gt;&lt;span style=&quot;color: #b5cea8;&quot;&gt;0.5&lt;/span&gt;&lt;span style=&quot;color: #cccccc;&quot;&gt; &lt;/span&gt;&lt;span style=&quot;color: #d4d4d4;&quot;&gt;*&lt;/span&gt;&lt;span style=&quot;color: #cccccc;&quot;&gt; &lt;/span&gt;&lt;span style=&quot;color: #9cdcfe;&quot;&gt;dt&lt;/span&gt;&lt;span style=&quot;color: #cccccc;&quot;&gt; &lt;/span&gt;&lt;span style=&quot;color: #d4d4d4;&quot;&gt;*&lt;/span&gt;&lt;span style=&quot;color: #cccccc;&quot;&gt; &lt;/span&gt;&lt;span style=&quot;color: #9cdcfe;&quot;&gt;dt&lt;/span&gt;&lt;span style=&quot;color: #cccccc;&quot;&gt; &lt;/span&gt;&lt;span style=&quot;color: #dcdcaa;&quot;&gt;*&lt;/span&gt;&lt;span style=&quot;color: #cccccc;&quot;&gt; &lt;/span&gt;&lt;span style=&quot;color: #9cdcfe;&quot;&gt;un_acc&lt;/span&gt;&lt;span style=&quot;color: #cccccc;&quot;&gt;;&lt;/span&gt;&lt;/div&gt;&lt;div&gt;&lt;span style=&quot;color: #cccccc;&quot;&gt;    &lt;/span&gt;&lt;span style=&quot;color: #9cdcfe;&quot;&gt;m_pred_velocity&lt;/span&gt;&lt;span style=&quot;color: #cccccc;&quot;&gt; &lt;/span&gt;&lt;span style=&quot;color: #dcdcaa;&quot;&gt;+=&lt;/span&gt;&lt;span style=&quot;color: #cccccc;&quot;&gt; &lt;/span&gt;&lt;span style=&quot;color: #9cdcfe;&quot;&gt;dt&lt;/span&gt;&lt;span style=&quot;color: #cccccc;&quot;&gt; &lt;/span&gt;&lt;span style=&quot;color: #dcdcaa;&quot;&gt;*&lt;/span&gt;&lt;span style=&quot;color: #cccccc;&quot;&gt; &lt;/span&gt;&lt;span style=&quot;color: #9cdcfe;&quot;&gt;un_acc&lt;/span&gt;&lt;span style=&quot;color: #cccccc;&quot;&gt;;&lt;/span&gt;&lt;/div&gt;&lt;br&gt;&lt;div&gt;&lt;span style=&quot;color: #cccccc;&quot;&gt;    &lt;/span&gt;&lt;span style=&quot;color: #9cdcfe;&quot;&gt;acc_0&lt;/span&gt;&lt;span style=&quot;color: #cccccc;&quot;&gt; &lt;/span&gt;&lt;span style=&quot;color: #dcdcaa;&quot;&gt;=&lt;/span&gt;&lt;span style=&quot;color: #cccccc;&quot;&gt; &lt;/span&gt;&lt;span style=&quot;color: #9cdcfe;&quot;&gt;linear_acceleration&lt;/span&gt;&lt;span style=&quot;color: #cccccc;&quot;&gt;;&lt;/span&gt;&lt;/div&gt;&lt;div&gt;&lt;span style=&quot;color: #cccccc;&quot;&gt;    &lt;/span&gt;&lt;span style=&quot;color: #9cdcfe;&quot;&gt;gyr_0&lt;/span&gt;&lt;span style=&quot;color: #cccccc;&quot;&gt; &lt;/span&gt;&lt;span style=&quot;color: #dcdcaa;&quot;&gt;=&lt;/span&gt;&lt;span style=&quot;color: #cccccc;&quot;&gt; &lt;/span&gt;&lt;span style=&quot;color: #9cdcfe;&quot;&gt;angular_velocity&lt;/span&gt;&lt;span style=&quot;color: #cccccc;&quot;&gt;;&lt;/span&gt;&lt;/div&gt;&lt;/div&gt;" style="text;whiteSpace=wrap;html=1;" vertex="1" parent="1">
          <mxGeometry x="850" y="3780" width="440" height="140" as="geometry" />
        </mxCell>
        <mxCell id="1EqsSl1_fIFVqMldxpXV-296" value="" style="group" vertex="1" connectable="0" parent="1">
          <mxGeometry x="848" y="3520" width="637" height="100" as="geometry" />
        </mxCell>
        <mxCell id="1EqsSl1_fIFVqMldxpXV-294" value="&lt;div style=&quot;color: #cccccc;background-color: #1f1f1f;font-family: &#39;JetBrains Mono&#39;, &#39;Droid Sans Mono&#39;, &#39;monospace&#39;, monospace;font-weight: normal;font-size: 14px;line-height: 19px;white-space: pre;&quot;&gt;&lt;div&gt;&lt;span style=&quot;color: #cccccc;&quot;&gt;    &lt;/span&gt;&lt;span style=&quot;color: #4ec9b0;&quot;&gt;Eigen&lt;/span&gt;&lt;span style=&quot;color: #cccccc;&quot;&gt;::&lt;/span&gt;&lt;span style=&quot;color: #4ec9b0;&quot;&gt;Vector3d&lt;/span&gt;&lt;span style=&quot;color: #cccccc;&quot;&gt; &lt;/span&gt;&lt;span style=&quot;color: #9cdcfe;&quot;&gt;m_pred_position&lt;/span&gt;&lt;span style=&quot;color: #cccccc;&quot;&gt;;&lt;/span&gt;&lt;/div&gt;&lt;div&gt;&lt;span style=&quot;color: #cccccc;&quot;&gt;    &lt;/span&gt;&lt;span style=&quot;color: #4ec9b0;&quot;&gt;Eigen&lt;/span&gt;&lt;span style=&quot;color: #cccccc;&quot;&gt;::&lt;/span&gt;&lt;span style=&quot;color: #4ec9b0;&quot;&gt;Vector3d&lt;/span&gt;&lt;span style=&quot;color: #cccccc;&quot;&gt; &lt;/span&gt;&lt;span style=&quot;color: #9cdcfe;&quot;&gt;m_pred_velocity&lt;/span&gt;&lt;span style=&quot;color: #cccccc;&quot;&gt;;&lt;/span&gt;&lt;/div&gt;&lt;div&gt;&lt;span style=&quot;color: #cccccc;&quot;&gt;    &lt;/span&gt;&lt;span style=&quot;color: #4ec9b0;&quot;&gt;Eigen&lt;/span&gt;&lt;span style=&quot;color: #cccccc;&quot;&gt;::&lt;/span&gt;&lt;span style=&quot;color: #4ec9b0;&quot;&gt;Matrix3d&lt;/span&gt;&lt;span style=&quot;color: #cccccc;&quot;&gt; &lt;/span&gt;&lt;span style=&quot;color: #9cdcfe;&quot;&gt;m_pred_rotation&lt;/span&gt;&lt;span style=&quot;color: #cccccc;&quot;&gt;;&lt;/span&gt;&lt;/div&gt;&lt;br&gt;&lt;/div&gt;" style="text;whiteSpace=wrap;html=1;" vertex="1" parent="1EqsSl1_fIFVqMldxpXV-296">
          <mxGeometry width="340" height="100" as="geometry" />
        </mxCell>
        <mxCell id="1EqsSl1_fIFVqMldxpXV-295" value="&lt;div style=&quot;color: #cccccc;background-color: #1f1f1f;font-family: &#39;JetBrains Mono&#39;, &#39;Droid Sans Mono&#39;, &#39;monospace&#39;, monospace;font-weight: normal;font-size: 14px;line-height: 19px;white-space: pre;&quot;&gt;&lt;div&gt;&lt;span style=&quot;color: #cccccc;&quot;&gt;    &lt;/span&gt;&lt;span style=&quot;color: #4ec9b0;&quot;&gt;Eigen&lt;/span&gt;&lt;span style=&quot;color: #cccccc;&quot;&gt;::&lt;/span&gt;&lt;span style=&quot;color: #4ec9b0;&quot;&gt;Vector3d&lt;/span&gt;&lt;span style=&quot;color: #cccccc;&quot;&gt; &lt;/span&gt;&lt;span style=&quot;color: #9cdcfe;&quot;&gt;m_last_position&lt;/span&gt;&lt;span style=&quot;color: #cccccc;&quot;&gt;;&lt;/span&gt;&lt;/div&gt;&lt;div&gt;&lt;span style=&quot;color: #cccccc;&quot;&gt;    &lt;/span&gt;&lt;span style=&quot;color: #4ec9b0;&quot;&gt;Eigen&lt;/span&gt;&lt;span style=&quot;color: #cccccc;&quot;&gt;::&lt;/span&gt;&lt;span style=&quot;color: #4ec9b0;&quot;&gt;Vector3d&lt;/span&gt;&lt;span style=&quot;color: #cccccc;&quot;&gt; &lt;/span&gt;&lt;span style=&quot;color: #9cdcfe;&quot;&gt;m_last_velocity&lt;/span&gt;&lt;span style=&quot;color: #cccccc;&quot;&gt;;&lt;/span&gt;&lt;/div&gt;&lt;div&gt;&lt;span style=&quot;color: #cccccc;&quot;&gt;    &lt;/span&gt;&lt;span style=&quot;color: #4ec9b0;&quot;&gt;Eigen&lt;/span&gt;&lt;span style=&quot;color: #cccccc;&quot;&gt;::&lt;/span&gt;&lt;span style=&quot;color: #4ec9b0;&quot;&gt;Matrix3d&lt;/span&gt;&lt;span style=&quot;color: #cccccc;&quot;&gt; &lt;/span&gt;&lt;span style=&quot;color: #9cdcfe;&quot;&gt;m_last_rotation&lt;/span&gt;&lt;span style=&quot;color: #cccccc;&quot;&gt;;&lt;/span&gt;&lt;/div&gt;&lt;br&gt;&lt;/div&gt;" style="text;whiteSpace=wrap;html=1;" vertex="1" parent="1EqsSl1_fIFVqMldxpXV-296">
          <mxGeometry x="297" width="340" height="100" as="geometry" />
        </mxCell>
        <mxCell id="1EqsSl1_fIFVqMldxpXV-297" value="&lt;div style=&quot;color: #cccccc;background-color: #1f1f1f;font-family: &#39;JetBrains Mono&#39;, &#39;Droid Sans Mono&#39;, &#39;monospace&#39;, monospace;font-weight: normal;font-size: 14px;line-height: 19px;white-space: pre;&quot;&gt;&lt;div&gt;&lt;span style=&quot;color: #569cd6;&quot;&gt;class&lt;/span&gt;&lt;span style=&quot;color: #cccccc;&quot;&gt; &lt;/span&gt;&lt;span style=&quot;color: #4ec9b0;&quot;&gt;UWB_Mobile&lt;/span&gt;&lt;span style=&quot;color: #cccccc;&quot;&gt; &lt;/span&gt;&lt;/div&gt;&lt;div&gt;&lt;span style=&quot;color: #cccccc;&quot;&gt;: &lt;/span&gt;&lt;span style=&quot;color: #569cd6;&quot;&gt;public&lt;/span&gt;&lt;span style=&quot;color: #cccccc;&quot;&gt; &lt;/span&gt;&lt;span style=&quot;color: #4ec9b0;&quot;&gt;UWB_Node&lt;/span&gt;&lt;/div&gt;&lt;/div&gt;" style="text;whiteSpace=wrap;html=1;" vertex="1" parent="1">
          <mxGeometry x="595" y="3540" width="150" height="40" as="geometry" />
        </mxCell>
        <mxCell id="1EqsSl1_fIFVqMldxpXV-298" value="" style="endArrow=classic;html=1;rounded=0;" edge="1" parent="1" target="1EqsSl1_fIFVqMldxpXV-294">
          <mxGeometry width="50" height="50" relative="1" as="geometry">
            <mxPoint x="701" y="3570" as="sourcePoint" />
            <mxPoint x="781" y="3550" as="targetPoint" />
          </mxGeometry>
        </mxCell>
        <mxCell id="1EqsSl1_fIFVqMldxpXV-299" value="" style="endArrow=classic;html=1;rounded=0;entryX=0;entryY=0.5;entryDx=0;entryDy=0;" edge="1" parent="1" source="1EqsSl1_fIFVqMldxpXV-292" target="1EqsSl1_fIFVqMldxpXV-293">
          <mxGeometry width="50" height="50" relative="1" as="geometry">
            <mxPoint x="690" y="3880" as="sourcePoint" />
            <mxPoint x="740" y="3830" as="targetPoint" />
          </mxGeometry>
        </mxCell>
        <mxCell id="1EqsSl1_fIFVqMldxpXV-306" value="&lt;div style=&quot;color: #cccccc;background-color: #1f1f1f;font-family: &#39;JetBrains Mono&#39;, &#39;Droid Sans Mono&#39;, &#39;monospace&#39;, monospace;font-weight: normal;font-size: 14px;line-height: 19px;white-space: pre;&quot;&gt;&lt;div&gt;&lt;span style=&quot;color: #dcdcaa;&quot;&gt;vectorToDouble&lt;/span&gt;&lt;/div&gt;&lt;/div&gt;" style="text;whiteSpace=wrap;html=1;" vertex="1" parent="1">
          <mxGeometry x="614" y="4025" width="150" height="40" as="geometry" />
        </mxCell>
        <mxCell id="1EqsSl1_fIFVqMldxpXV-320" value="" style="group" vertex="1" connectable="0" parent="1">
          <mxGeometry x="813" y="3759" width="230" height="192" as="geometry" />
        </mxCell>
        <mxCell id="1EqsSl1_fIFVqMldxpXV-318" value="&lt;b&gt;for (auto imu : measurement.first)&lt;/b&gt;&lt;b style=&quot;background-color: initial;&quot;&gt;{&lt;/b&gt;" style="text;html=1;align=center;verticalAlign=middle;resizable=0;points=[];autosize=1;strokeColor=none;fillColor=none;" vertex="1" parent="1EqsSl1_fIFVqMldxpXV-320">
          <mxGeometry width="230" height="30" as="geometry" />
        </mxCell>
        <mxCell id="1EqsSl1_fIFVqMldxpXV-319" value="}" style="text;html=1;align=center;verticalAlign=middle;resizable=0;points=[];autosize=1;strokeColor=none;fillColor=none;fontStyle=1" vertex="1" parent="1EqsSl1_fIFVqMldxpXV-320">
          <mxGeometry y="162" width="30" height="30" as="geometry" />
        </mxCell>
        <mxCell id="1EqsSl1_fIFVqMldxpXV-321" value="" style="endArrow=classic;html=1;rounded=0;" edge="1" parent="1" target="1EqsSl1_fIFVqMldxpXV-307">
          <mxGeometry width="50" height="50" relative="1" as="geometry">
            <mxPoint x="760" y="4265" as="sourcePoint" />
            <mxPoint x="720" y="4070" as="targetPoint" />
          </mxGeometry>
        </mxCell>
        <mxCell id="1EqsSl1_fIFVqMldxpXV-322" value="开始优化" style="text;html=1;align=center;verticalAlign=middle;resizable=0;points=[];autosize=1;strokeColor=none;fillColor=none;" vertex="1" parent="1">
          <mxGeometry x="557" y="4080" width="70" height="30" as="geometry" />
        </mxCell>
        <mxCell id="1EqsSl1_fIFVqMldxpXV-325" value="" style="endArrow=classic;html=1;rounded=0;" edge="1" parent="1" target="1EqsSl1_fIFVqMldxpXV-306">
          <mxGeometry width="50" height="50" relative="1" as="geometry">
            <mxPoint x="689" y="3880" as="sourcePoint" />
            <mxPoint x="860" y="3860" as="targetPoint" />
          </mxGeometry>
        </mxCell>
        <mxCell id="1EqsSl1_fIFVqMldxpXV-326" value="前向传播的过程，就是传播m_pred_position, velocity, rotation的过程" style="text;html=1;align=center;verticalAlign=middle;resizable=0;points=[];autosize=1;strokeColor=none;fillColor=none;" vertex="1" parent="1">
          <mxGeometry x="471" y="3948" width="400" height="30" as="geometry" />
        </mxCell>
        <mxCell id="1EqsSl1_fIFVqMldxpXV-328" value="定义m_pred_position, velocity, rotation" style="text;html=1;align=center;verticalAlign=middle;resizable=0;points=[];autosize=1;strokeColor=none;fillColor=none;" vertex="1" parent="1">
          <mxGeometry x="550" y="3510" width="240" height="30" as="geometry" />
        </mxCell>
        <mxCell id="1EqsSl1_fIFVqMldxpXV-338" value="" style="group" vertex="1" connectable="0" parent="1">
          <mxGeometry x="870" y="3955" width="390" height="180" as="geometry" />
        </mxCell>
        <mxCell id="1EqsSl1_fIFVqMldxpXV-305" value="" style="rounded=1;whiteSpace=wrap;html=1;" vertex="1" parent="1EqsSl1_fIFVqMldxpXV-338">
          <mxGeometry width="390" height="180" as="geometry" />
        </mxCell>
        <mxCell id="1EqsSl1_fIFVqMldxpXV-300" value="&lt;div style=&quot;color: #cccccc;background-color: #1f1f1f;font-family: &#39;JetBrains Mono&#39;, &#39;Droid Sans Mono&#39;, &#39;monospace&#39;, monospace;font-weight: normal;font-size: 14px;line-height: 19px;white-space: pre;&quot;&gt;&lt;div&gt;&lt;span style=&quot;color: #cccccc;&quot;&gt;    &lt;/span&gt;&lt;span style=&quot;color: #9cdcfe;&quot;&gt;para_pose&lt;/span&gt;&lt;span style=&quot;color: #cccccc;&quot;&gt; &lt;/span&gt;&lt;span style=&quot;color: #d4d4d4;&quot;&gt;=&lt;/span&gt;&lt;span style=&quot;color: #cccccc;&quot;&gt; &lt;/span&gt;&lt;span style=&quot;color: #9cdcfe;&quot;&gt;m_pred_position&lt;/span&gt;&lt;span style=&quot;color: #cccccc;&quot;&gt;;&lt;/span&gt;&lt;/div&gt;&lt;/div&gt;" style="text;whiteSpace=wrap;html=1;" vertex="1" parent="1EqsSl1_fIFVqMldxpXV-338">
          <mxGeometry x="20" y="10" width="279" height="30" as="geometry" />
        </mxCell>
        <mxCell id="1EqsSl1_fIFVqMldxpXV-301" value="&lt;div style=&quot;color: #cccccc;background-color: #1f1f1f;font-family: &#39;JetBrains Mono&#39;, &#39;Droid Sans Mono&#39;, &#39;monospace&#39;, monospace;font-weight: normal;font-size: 14px;line-height: 19px;white-space: pre;&quot;&gt;&lt;div&gt;&lt;span style=&quot;color: #cccccc;&quot;&gt;    &lt;/span&gt;&lt;span style=&quot;color: #9cdcfe;&quot;&gt;para_speed_bias&lt;/span&gt;&lt;span style=&quot;color: #cccccc;&quot;&gt; &lt;/span&gt;&lt;span style=&quot;color: #d4d4d4;&quot;&gt;=&lt;/span&gt;&lt;span style=&quot;color: #cccccc;&quot;&gt; &lt;/span&gt;&lt;span style=&quot;color: #9cdcfe;&quot;&gt;m_pred_velocity&lt;/span&gt;&lt;/div&gt;&lt;/div&gt;" style="text;whiteSpace=wrap;html=1;" vertex="1" parent="1EqsSl1_fIFVqMldxpXV-338">
          <mxGeometry x="20" y="70" width="320" height="30" as="geometry" />
        </mxCell>
        <mxCell id="1EqsSl1_fIFVqMldxpXV-302" value="&lt;div style=&quot;color: #cccccc;background-color: #1f1f1f;font-family: &#39;JetBrains Mono&#39;, &#39;Droid Sans Mono&#39;, &#39;monospace&#39;, monospace;font-weight: normal;font-size: 14px;line-height: 19px;white-space: pre;&quot;&gt;&lt;div&gt;&lt;span style=&quot;color: #cccccc;&quot;&gt;    &lt;/span&gt;&lt;span style=&quot;color: #9cdcfe;&quot;&gt;para_speed_bias&lt;/span&gt;&lt;span style=&quot;color: #cccccc;&quot;&gt; &lt;/span&gt;&lt;span style=&quot;color: #d4d4d4;&quot;&gt;=&lt;/span&gt;&lt;span style=&quot;color: #cccccc;&quot;&gt; &lt;/span&gt;&lt;span style=&quot;color: #9cdcfe;&quot;&gt;m_acceleration_bias&lt;/span&gt;&lt;/div&gt;&lt;/div&gt;" style="text;whiteSpace=wrap;html=1;" vertex="1" parent="1EqsSl1_fIFVqMldxpXV-338">
          <mxGeometry x="20" y="100" width="350" height="30" as="geometry" />
        </mxCell>
        <mxCell id="1EqsSl1_fIFVqMldxpXV-303" value="&lt;div style=&quot;color: #cccccc;background-color: #1f1f1f;font-family: &#39;JetBrains Mono&#39;, &#39;Droid Sans Mono&#39;, &#39;monospace&#39;, monospace;font-weight: normal;font-size: 14px;line-height: 19px;white-space: pre;&quot;&gt;&lt;div&gt;&lt;span style=&quot;color: #cccccc;&quot;&gt;    &lt;/span&gt;&lt;span style=&quot;color: #9cdcfe;&quot;&gt;para_speed_bias&lt;/span&gt;&lt;span style=&quot;color: #cccccc;&quot;&gt; &lt;/span&gt;&lt;span style=&quot;color: #d4d4d4;&quot;&gt;=&lt;/span&gt;&lt;span style=&quot;color: #cccccc;&quot;&gt; &lt;/span&gt;&lt;span style=&quot;color: #9cdcfe;&quot;&gt;m_angular_bias&lt;/span&gt;&lt;/div&gt;&lt;/div&gt;" style="text;whiteSpace=wrap;html=1;" vertex="1" parent="1EqsSl1_fIFVqMldxpXV-338">
          <mxGeometry x="20" y="130" width="305" height="40" as="geometry" />
        </mxCell>
        <mxCell id="1EqsSl1_fIFVqMldxpXV-304" value="&lt;div style=&quot;color: #cccccc;background-color: #1f1f1f;font-family: &#39;JetBrains Mono&#39;, &#39;Droid Sans Mono&#39;, &#39;monospace&#39;, monospace;font-weight: normal;font-size: 14px;line-height: 19px;white-space: pre;&quot;&gt;&lt;div&gt;&lt;span style=&quot;color: #cccccc;&quot;&gt; &lt;/span&gt;&lt;span style=&quot;color: #9cdcfe;&quot;&gt;para_pose&lt;/span&gt;&lt;span style=&quot;color: #cccccc;&quot;&gt; &lt;/span&gt;&lt;span style=&quot;color: #d4d4d4;&quot;&gt;=&lt;/span&gt;&lt;span style=&quot;color: #cccccc;&quot;&gt; &lt;/span&gt;&lt;span style=&quot;color: rgb(156, 220, 254);&quot;&gt;m_pred_rotation&lt;/span&gt;&lt;/div&gt;&lt;/div&gt;" style="text;whiteSpace=wrap;html=1;" vertex="1" parent="1EqsSl1_fIFVqMldxpXV-338">
          <mxGeometry x="20" y="40" width="250" height="40" as="geometry" />
        </mxCell>
        <mxCell id="1EqsSl1_fIFVqMldxpXV-340" value="" style="endArrow=classic;html=1;rounded=0;" edge="1" parent="1" source="1EqsSl1_fIFVqMldxpXV-342" target="1EqsSl1_fIFVqMldxpXV-339">
          <mxGeometry width="50" height="50" relative="1" as="geometry">
            <mxPoint x="682" y="4060" as="sourcePoint" />
            <mxPoint x="684" y="4220" as="targetPoint" />
          </mxGeometry>
        </mxCell>
        <mxCell id="1EqsSl1_fIFVqMldxpXV-339" value="&lt;div style=&quot;color: #cccccc;background-color: #1f1f1f;font-family: &#39;JetBrains Mono&#39;, &#39;Droid Sans Mono&#39;, &#39;monospace&#39;, monospace;font-weight: normal;font-size: 14px;line-height: 19px;white-space: pre;&quot;&gt;&lt;div&gt;&lt;span style=&quot;color: #dcdcaa;&quot;&gt;doubleToVector&lt;/span&gt;&lt;/div&gt;&lt;/div&gt;" style="text;whiteSpace=wrap;html=1;" vertex="1" parent="1">
          <mxGeometry x="609" y="4250" width="150" height="40" as="geometry" />
        </mxCell>
        <mxCell id="1EqsSl1_fIFVqMldxpXV-337" value="" style="rounded=1;whiteSpace=wrap;html=1;" vertex="1" parent="1">
          <mxGeometry x="813" y="4480" width="277" height="130" as="geometry" />
        </mxCell>
        <mxCell id="1EqsSl1_fIFVqMldxpXV-307" value="&lt;div style=&quot;color: #cccccc;background-color: #1f1f1f;font-family: &#39;JetBrains Mono&#39;, &#39;Droid Sans Mono&#39;, &#39;monospace&#39;, monospace;font-weight: normal;font-size: 14px;line-height: 19px;white-space: pre;&quot;&gt;&lt;div&gt;&lt;span style=&quot;color: #dcdcaa;&quot;&gt;setLastPosition&lt;/span&gt;&lt;/div&gt;&lt;/div&gt;" style="text;whiteSpace=wrap;html=1;" vertex="1" parent="1">
          <mxGeometry x="800" y="4250" width="160" height="30" as="geometry" />
        </mxCell>
        <mxCell id="1EqsSl1_fIFVqMldxpXV-324" value="将优化后的p,v,q赋值给m_pred_position, velocity, rotation, bias" style="text;html=1;align=center;verticalAlign=middle;resizable=0;points=[];autosize=1;strokeColor=none;fillColor=none;" vertex="1" parent="1">
          <mxGeometry x="490" y="4450" width="370" height="30" as="geometry" />
        </mxCell>
        <mxCell id="1EqsSl1_fIFVqMldxpXV-329" value="&lt;div style=&quot;color: #cccccc;background-color: #1f1f1f;font-family: &#39;JetBrains Mono&#39;, &#39;Droid Sans Mono&#39;, &#39;monospace&#39;, monospace;font-weight: normal;font-size: 14px;line-height: 19px;white-space: pre;&quot;&gt;&lt;div&gt;&lt;span style=&quot;color: #dcdcaa;&quot;&gt;pubOdometry&lt;/span&gt;&lt;/div&gt;&lt;/div&gt;" style="text;whiteSpace=wrap;html=1;" vertex="1" parent="1">
          <mxGeometry x="624" y="4510" width="130" height="30" as="geometry" />
        </mxCell>
        <mxCell id="1EqsSl1_fIFVqMldxpXV-330" value="&lt;div style=&quot;color: #cccccc;background-color: #1f1f1f;font-family: &#39;JetBrains Mono&#39;, &#39;Droid Sans Mono&#39;, &#39;monospace&#39;, monospace;font-weight: normal;font-size: 14px;line-height: 19px;white-space: pre;&quot;&gt;&lt;div&gt;&lt;span style=&quot;color: #dcdcaa;&quot;&gt;getPosition&lt;/span&gt;&lt;/div&gt;&lt;/div&gt;" style="text;whiteSpace=wrap;html=1;" vertex="1" parent="1">
          <mxGeometry x="827" y="4490" width="133" height="40" as="geometry" />
        </mxCell>
        <mxCell id="1EqsSl1_fIFVqMldxpXV-331" value="&lt;div style=&quot;color: #cccccc;background-color: #1f1f1f;font-family: &#39;JetBrains Mono&#39;, &#39;Droid Sans Mono&#39;, &#39;monospace&#39;, monospace;font-weight: normal;font-size: 14px;line-height: 19px;white-space: pre;&quot;&gt;&lt;div&gt;&lt;span style=&quot;color: #dcdcaa;&quot;&gt;getVelocity&lt;/span&gt;&lt;/div&gt;&lt;/div&gt;" style="text;whiteSpace=wrap;html=1;" vertex="1" parent="1">
          <mxGeometry x="827" y="4530" width="130" height="40" as="geometry" />
        </mxCell>
        <mxCell id="1EqsSl1_fIFVqMldxpXV-332" value="&lt;div style=&quot;color: #cccccc;background-color: #1f1f1f;font-family: &#39;JetBrains Mono&#39;, &#39;Droid Sans Mono&#39;, &#39;monospace&#39;, monospace;font-weight: normal;font-size: 14px;line-height: 19px;white-space: pre;&quot;&gt;&lt;div&gt;&lt;span style=&quot;color: #dcdcaa;&quot;&gt;getOrientation&lt;/span&gt;&lt;/div&gt;&lt;/div&gt;" style="text;whiteSpace=wrap;html=1;" vertex="1" parent="1">
          <mxGeometry x="825" y="4570" width="150" height="40" as="geometry" />
        </mxCell>
        <mxCell id="1EqsSl1_fIFVqMldxpXV-334" value="&lt;div style=&quot;color: #cccccc;background-color: #1f1f1f;font-family: &#39;JetBrains Mono&#39;, &#39;Droid Sans Mono&#39;, &#39;monospace&#39;, monospace;font-weight: normal;font-size: 14px;line-height: 19px;white-space: pre;&quot;&gt;&lt;div&gt;&lt;span style=&quot;color: #cccccc;&quot;&gt;m_position&lt;/span&gt;&lt;/div&gt;&lt;/div&gt;" style="text;whiteSpace=wrap;html=1;" vertex="1" parent="1">
          <mxGeometry x="970" y="4490" width="120" height="40" as="geometry" />
        </mxCell>
        <mxCell id="1EqsSl1_fIFVqMldxpXV-335" value="&lt;div style=&quot;color: #cccccc;background-color: #1f1f1f;font-family: &#39;JetBrains Mono&#39;, &#39;Droid Sans Mono&#39;, &#39;monospace&#39;, monospace;font-weight: normal;font-size: 14px;line-height: 19px;white-space: pre;&quot;&gt;&lt;div&gt;&lt;span style=&quot;color: #cccccc;&quot;&gt;m_velocity&lt;/span&gt;&lt;/div&gt;&lt;/div&gt;" style="text;whiteSpace=wrap;html=1;" vertex="1" parent="1">
          <mxGeometry x="970" y="4530" width="120" height="40" as="geometry" />
        </mxCell>
        <mxCell id="1EqsSl1_fIFVqMldxpXV-336" value="&lt;div style=&quot;color: #cccccc;background-color: #1f1f1f;font-family: &#39;JetBrains Mono&#39;, &#39;Droid Sans Mono&#39;, &#39;monospace&#39;, monospace;font-weight: normal;font-size: 14px;line-height: 19px;white-space: pre;&quot;&gt;&lt;div&gt;&lt;span style=&quot;color: #cccccc;&quot;&gt;m_orientation&lt;/span&gt;&lt;/div&gt;&lt;/div&gt;" style="text;whiteSpace=wrap;html=1;" vertex="1" parent="1">
          <mxGeometry x="970" y="4570" width="140" height="40" as="geometry" />
        </mxCell>
        <mxCell id="1EqsSl1_fIFVqMldxpXV-343" value="" style="endArrow=classic;html=1;rounded=0;" edge="1" parent="1" target="1EqsSl1_fIFVqMldxpXV-342">
          <mxGeometry width="50" height="50" relative="1" as="geometry">
            <mxPoint x="682" y="4060" as="sourcePoint" />
            <mxPoint x="684" y="4180" as="targetPoint" />
          </mxGeometry>
        </mxCell>
        <mxCell id="1EqsSl1_fIFVqMldxpXV-342" value="optimize" style="whiteSpace=wrap;html=1;fillColor=default;" vertex="1" parent="1">
          <mxGeometry x="641" y="4130" width="86" height="40" as="geometry" />
        </mxCell>
        <mxCell id="1EqsSl1_fIFVqMldxpXV-344" value="&lt;span style=&quot;color: rgb(0, 0, 0); font-family: Helvetica; font-size: 12px; font-style: normal; font-variant-ligatures: normal; font-variant-caps: normal; font-weight: 400; letter-spacing: normal; orphans: 2; text-align: center; text-indent: 0px; text-transform: none; widows: 2; word-spacing: 0px; -webkit-text-stroke-width: 0px; white-space: nowrap; background-color: rgb(251, 251, 251); text-decoration-thickness: initial; text-decoration-style: initial; text-decoration-color: initial; display: inline !important; float: none;&quot;&gt;结束优化m_pred_position, velocity, rotation, bias，将优化后的变量赋值给&lt;/span&gt;&lt;span style=&quot;text-align: center; text-wrap: nowrap;&quot;&gt;开始优化m_pred_position, velocity, rotation, bias&lt;/span&gt;" style="text;whiteSpace=wrap;html=1;" vertex="1" parent="1">
          <mxGeometry x="450" y="4180" width="410" height="40" as="geometry" />
        </mxCell>
        <mxCell id="1EqsSl1_fIFVqMldxpXV-346" value="" style="endArrow=classic;html=1;rounded=0;entryX=0.462;entryY=0.038;entryDx=0;entryDy=0;entryPerimeter=0;exitX=0.5;exitY=1;exitDx=0;exitDy=0;" edge="1" parent="1" source="1EqsSl1_fIFVqMldxpXV-339" target="1EqsSl1_fIFVqMldxpXV-329">
          <mxGeometry width="50" height="50" relative="1" as="geometry">
            <mxPoint x="694" y="4290" as="sourcePoint" />
            <mxPoint x="694" y="4350" as="targetPoint" />
          </mxGeometry>
        </mxCell>
        <mxCell id="1EqsSl1_fIFVqMldxpXV-350" value="&lt;div style=&quot;color: #cccccc;background-color: #1f1f1f;font-family: &#39;JetBrains Mono&#39;, &#39;Droid Sans Mono&#39;, &#39;monospace&#39;, monospace;font-weight: normal;font-size: 14px;line-height: 19px;white-space: pre;&quot;&gt;&lt;div&gt;&lt;span style=&quot;color: #dcdcaa;&quot;&gt;setLastVelocity&lt;/span&gt;&lt;/div&gt;&lt;/div&gt;" style="text;whiteSpace=wrap;html=1;" vertex="1" parent="1">
          <mxGeometry x="797" y="4280" width="160" height="40" as="geometry" />
        </mxCell>
        <mxCell id="1EqsSl1_fIFVqMldxpXV-351" value="&lt;div style=&quot;color: #cccccc;background-color: #1f1f1f;font-family: &#39;JetBrains Mono&#39;, &#39;Droid Sans Mono&#39;, &#39;monospace&#39;, monospace;font-weight: normal;font-size: 14px;line-height: 19px;white-space: pre;&quot;&gt;&lt;div&gt;&lt;span style=&quot;color: #dcdcaa;&quot;&gt;setLastRotation&lt;/span&gt;&lt;/div&gt;&lt;/div&gt;" style="text;whiteSpace=wrap;html=1;" vertex="1" parent="1">
          <mxGeometry x="797" y="4310" width="160" height="40" as="geometry" />
        </mxCell>
        <mxCell id="1EqsSl1_fIFVqMldxpXV-352" value="&lt;div style=&quot;color: #cccccc;background-color: #1f1f1f;font-family: &#39;JetBrains Mono&#39;, &#39;Droid Sans Mono&#39;, &#39;monospace&#39;, monospace;font-weight: normal;font-size: 14px;line-height: 19px;white-space: pre;&quot;&gt;&lt;div&gt;&lt;span style=&quot;color: #dcdcaa;&quot;&gt;setPosition&lt;/span&gt;&lt;/div&gt;&lt;/div&gt;" style="text;whiteSpace=wrap;html=1;" vertex="1" parent="1">
          <mxGeometry x="797" y="4340" width="130" height="40" as="geometry" />
        </mxCell>
        <mxCell id="1EqsSl1_fIFVqMldxpXV-353" value="&lt;div style=&quot;color: #cccccc;background-color: #1f1f1f;font-family: &#39;JetBrains Mono&#39;, &#39;Droid Sans Mono&#39;, &#39;monospace&#39;, monospace;font-weight: normal;font-size: 14px;line-height: 19px;white-space: pre;&quot;&gt;&lt;div&gt;&lt;span style=&quot;color: #dcdcaa;&quot;&gt;setVelocity&lt;/span&gt;&lt;/div&gt;&lt;/div&gt;" style="text;whiteSpace=wrap;html=1;" vertex="1" parent="1">
          <mxGeometry x="800" y="4370" width="130" height="40" as="geometry" />
        </mxCell>
        <mxCell id="1EqsSl1_fIFVqMldxpXV-354" value="&lt;div style=&quot;color: #cccccc;background-color: #1f1f1f;font-family: &#39;JetBrains Mono&#39;, &#39;Droid Sans Mono&#39;, &#39;monospace&#39;, monospace;font-weight: normal;font-size: 14px;line-height: 19px;white-space: pre;&quot;&gt;&lt;div&gt;&lt;span style=&quot;color: #dcdcaa;&quot;&gt;setOrientation&lt;/span&gt;&lt;/div&gt;&lt;/div&gt;" style="text;whiteSpace=wrap;html=1;" vertex="1" parent="1">
          <mxGeometry x="797" y="4400" width="150" height="40" as="geometry" />
        </mxCell>
        <mxCell id="1EqsSl1_fIFVqMldxpXV-358" value="" style="group" vertex="1" connectable="0" parent="1">
          <mxGeometry x="950" y="4230" width="290" height="210" as="geometry" />
        </mxCell>
        <mxCell id="1EqsSl1_fIFVqMldxpXV-314" value="" style="rounded=1;whiteSpace=wrap;html=1;" vertex="1" parent="1EqsSl1_fIFVqMldxpXV-358">
          <mxGeometry width="290" height="210" as="geometry" />
        </mxCell>
        <mxCell id="1EqsSl1_fIFVqMldxpXV-355" value="&lt;div style=&quot;color: #cccccc;background-color: #1f1f1f;font-family: &#39;JetBrains Mono&#39;, &#39;Droid Sans Mono&#39;, &#39;monospace&#39;, monospace;font-weight: normal;font-size: 14px;line-height: 19px;white-space: pre;&quot;&gt;&lt;div&gt;&lt;span style=&quot;color: #9cdcfe;&quot;&gt;m_pred_position&lt;/span&gt;&lt;span style=&quot;color: #cccccc;&quot;&gt; &lt;/span&gt;&lt;span style=&quot;color: #dcdcaa;&quot;&gt;=&lt;/span&gt;&lt;span style=&quot;color: #cccccc;&quot;&gt; &lt;/span&gt;&lt;span style=&quot;color: rgb(156, 220, 254);&quot;&gt;para_pose.p&lt;/span&gt;&lt;span style=&quot;color: #cccccc;&quot;&gt;;&lt;/span&gt;&lt;/div&gt;&lt;/div&gt;" style="text;whiteSpace=wrap;html=1;" vertex="1" parent="1EqsSl1_fIFVqMldxpXV-358">
          <mxGeometry x="21" y="110" width="239" height="40" as="geometry" />
        </mxCell>
        <mxCell id="1EqsSl1_fIFVqMldxpXV-356" value="&lt;div style=&quot;color: #cccccc;background-color: #1f1f1f;font-family: &#39;JetBrains Mono&#39;, &#39;Droid Sans Mono&#39;, &#39;monospace&#39;, monospace;font-weight: normal;font-size: 14px;line-height: 19px;white-space: pre;&quot;&gt;&lt;div&gt;&lt;span style=&quot;color: #9cdcfe;&quot;&gt;m_pred_velocity&lt;/span&gt;&lt;span style=&quot;color: #cccccc;&quot;&gt; &lt;/span&gt;&lt;span style=&quot;color: #dcdcaa;&quot;&gt;=&lt;/span&gt;&lt;span style=&quot;color: #cccccc;&quot;&gt; &lt;/span&gt;&lt;span style=&quot;color: rgb(156, 220, 254);&quot;&gt;para_speed_bias.v&lt;/span&gt;&lt;span style=&quot;color: #cccccc;&quot;&gt;;&lt;/span&gt;&lt;/div&gt;&lt;/div&gt;" style="text;whiteSpace=wrap;html=1;" vertex="1" parent="1EqsSl1_fIFVqMldxpXV-358">
          <mxGeometry x="21" y="140" width="260" height="40" as="geometry" />
        </mxCell>
        <mxCell id="1EqsSl1_fIFVqMldxpXV-357" value="&lt;div style=&quot;color: #cccccc;background-color: #1f1f1f;font-family: &#39;JetBrains Mono&#39;, &#39;Droid Sans Mono&#39;, &#39;monospace&#39;, monospace;font-weight: normal;font-size: 14px;line-height: 19px;white-space: pre;&quot;&gt;&lt;div&gt;&lt;span style=&quot;color: #cccccc;&quot;&gt; &lt;/span&gt;&lt;span style=&quot;color: #9cdcfe;&quot;&gt;m_pred_rotation&lt;/span&gt;&lt;span style=&quot;color: #cccccc;&quot;&gt; &lt;/span&gt;&lt;span style=&quot;color: #dcdcaa;&quot;&gt;=&lt;/span&gt;&lt;span style=&quot;color: #cccccc;&quot;&gt; &lt;/span&gt;&lt;span style=&quot;color: rgb(156, 220, 254);&quot;&gt;para_pose.R&lt;/span&gt;&lt;span style=&quot;color: #cccccc;&quot;&gt;;&lt;/span&gt;&lt;/div&gt;&lt;/div&gt;" style="text;whiteSpace=wrap;html=1;" vertex="1" parent="1EqsSl1_fIFVqMldxpXV-358">
          <mxGeometry x="20" y="170" width="244" height="40" as="geometry" />
        </mxCell>
        <mxCell id="1EqsSl1_fIFVqMldxpXV-310" value="&lt;div style=&quot;color: #cccccc;background-color: #1f1f1f;font-family: &#39;JetBrains Mono&#39;, &#39;Droid Sans Mono&#39;, &#39;monospace&#39;, monospace;font-weight: normal;font-size: 14px;line-height: 19px;white-space: pre;&quot;&gt;&lt;div&gt;&lt;span style=&quot;color: #9cdcfe;&quot;&gt;m_last_rotation&lt;/span&gt;&lt;span style=&quot;color: #cccccc;&quot;&gt; &lt;/span&gt;&lt;span style=&quot;color: #dcdcaa;&quot;&gt;=&lt;/span&gt;&lt;span style=&quot;color: #cccccc;&quot;&gt; &lt;/span&gt;&lt;span style=&quot;color: rgb(156, 220, 254);&quot;&gt;para_pose.R&lt;/span&gt;&lt;span style=&quot;color: #cccccc;&quot;&gt;;&lt;/span&gt;&lt;/div&gt;&lt;/div&gt;" style="text;whiteSpace=wrap;html=1;" vertex="1" parent="1EqsSl1_fIFVqMldxpXV-358">
          <mxGeometry x="19.99889101338431" y="70" width="94.45506692160613" height="40" as="geometry" />
        </mxCell>
        <mxCell id="1EqsSl1_fIFVqMldxpXV-308" value="&lt;div style=&quot;color: #cccccc;background-color: #1f1f1f;font-family: &#39;JetBrains Mono&#39;, &#39;Droid Sans Mono&#39;, &#39;monospace&#39;, monospace;font-weight: normal;font-size: 14px;line-height: 19px;white-space: pre;&quot;&gt;&lt;div&gt;&lt;span style=&quot;color: #cccccc;&quot;&gt; &lt;/span&gt;&lt;span style=&quot;color: #9cdcfe;&quot;&gt;m_last_position&lt;/span&gt;&lt;span style=&quot;color: #cccccc;&quot;&gt; &lt;/span&gt;&lt;span style=&quot;color: #dcdcaa;&quot;&gt;=&lt;/span&gt;&lt;span style=&quot;color: #cccccc;&quot;&gt; &lt;/span&gt;&lt;span style=&quot;color: rgb(156, 220, 254);&quot;&gt;para_pose.p&lt;/span&gt;&lt;span style=&quot;color: #cccccc;&quot;&gt;;&lt;/span&gt;&lt;/div&gt;&lt;/div&gt;" style="text;whiteSpace=wrap;html=1;" vertex="1" parent="1EqsSl1_fIFVqMldxpXV-358">
          <mxGeometry x="20.362179732313507" y="10" width="98.08795411089866" height="40" as="geometry" />
        </mxCell>
        <mxCell id="1EqsSl1_fIFVqMldxpXV-309" value="&lt;div style=&quot;color: #cccccc;background-color: #1f1f1f;font-family: &#39;JetBrains Mono&#39;, &#39;Droid Sans Mono&#39;, &#39;monospace&#39;, monospace;font-weight: normal;font-size: 14px;line-height: 19px;white-space: pre;&quot;&gt;&lt;div&gt;&lt;span style=&quot;color: #cccccc;&quot;&gt; &lt;/span&gt;&lt;span style=&quot;color: #9cdcfe;&quot;&gt;m_last_velocity&lt;/span&gt;&lt;span style=&quot;color: #cccccc;&quot;&gt; &lt;/span&gt;&lt;span style=&quot;color: #dcdcaa;&quot;&gt;=&lt;/span&gt;&lt;span style=&quot;color: #cccccc;&quot;&gt; &lt;/span&gt;&lt;span style=&quot;color: rgb(156, 220, 254);&quot;&gt;para_speed_bias.v&lt;/span&gt;&lt;span style=&quot;color: #cccccc;&quot;&gt;;&lt;/span&gt;&lt;/div&gt;&lt;/div&gt;" style="text;whiteSpace=wrap;html=1;" vertex="1" parent="1EqsSl1_fIFVqMldxpXV-358">
          <mxGeometry x="21.452045889101328" y="38" width="98.08795411089866" height="40" as="geometry" />
        </mxCell>
        <mxCell id="1EqsSl1_fIFVqMldxpXV-365" value="" style="group" vertex="1" connectable="0" parent="1">
          <mxGeometry x="1300" y="4280" width="271" height="110" as="geometry" />
        </mxCell>
        <mxCell id="1EqsSl1_fIFVqMldxpXV-362" value="" style="rounded=1;whiteSpace=wrap;html=1;" vertex="1" parent="1EqsSl1_fIFVqMldxpXV-365">
          <mxGeometry width="271" height="110" as="geometry" />
        </mxCell>
        <mxCell id="1EqsSl1_fIFVqMldxpXV-359" value="&lt;div style=&quot;color: #cccccc;background-color: #1f1f1f;font-family: &#39;JetBrains Mono&#39;, &#39;Droid Sans Mono&#39;, &#39;monospace&#39;, monospace;font-weight: normal;font-size: 14px;line-height: 19px;white-space: pre;&quot;&gt;&lt;div&gt;&lt;span style=&quot;color: #9cdcfe;&quot;&gt;m_orientation = para_pose.R&lt;/span&gt;&lt;/div&gt;&lt;/div&gt;" style="text;whiteSpace=wrap;html=1;" vertex="1" parent="1EqsSl1_fIFVqMldxpXV-365">
          <mxGeometry x="11.25" y="10" width="140" height="40" as="geometry" />
        </mxCell>
        <mxCell id="1EqsSl1_fIFVqMldxpXV-360" value="&lt;div style=&quot;color: #cccccc;background-color: #1f1f1f;font-family: &#39;JetBrains Mono&#39;, &#39;Droid Sans Mono&#39;, &#39;monospace&#39;, monospace;font-weight: normal;font-size: 14px;line-height: 19px;white-space: pre;&quot;&gt;&lt;div&gt;&lt;span style=&quot;color: #9cdcfe;&quot;&gt;m_position = para_pose.p&lt;/span&gt;&lt;/div&gt;&lt;/div&gt;" style="text;whiteSpace=wrap;html=1;" vertex="1" parent="1EqsSl1_fIFVqMldxpXV-365">
          <mxGeometry x="11.25" y="40" width="120" height="40" as="geometry" />
        </mxCell>
        <mxCell id="1EqsSl1_fIFVqMldxpXV-361" value="&lt;div style=&quot;color: #cccccc;background-color: #1f1f1f;font-family: &#39;JetBrains Mono&#39;, &#39;Droid Sans Mono&#39;, &#39;monospace&#39;, monospace;font-weight: normal;font-size: 14px;line-height: 19px;white-space: pre;&quot;&gt;&lt;div&gt;&lt;span style=&quot;color: #9cdcfe;&quot;&gt;m_velocity = para_speed_bias.v&lt;/span&gt;&lt;/div&gt;&lt;/div&gt;" style="text;whiteSpace=wrap;html=1;" vertex="1" parent="1EqsSl1_fIFVqMldxpXV-365">
          <mxGeometry x="11.25" y="70" width="120" height="40" as="geometry" />
        </mxCell>
        <mxCell id="1EqsSl1_fIFVqMldxpXV-367" value="先验状态" style="text;html=1;align=center;verticalAlign=middle;resizable=0;points=[];autosize=1;strokeColor=#d6b656;fillColor=#fff2cc;" vertex="1" parent="1">
          <mxGeometry x="1466" y="3848" width="70" height="30" as="geometry" />
        </mxCell>
        <mxCell id="1EqsSl1_fIFVqMldxpXV-368" value="后验状态" style="text;html=1;align=center;verticalAlign=middle;resizable=0;points=[];autosize=1;strokeColor=#d6b656;fillColor=#fff2cc;" vertex="1" parent="1">
          <mxGeometry x="1466" y="4240" width="70" height="30" as="geometry" />
        </mxCell>
        <mxCell id="1EqsSl1_fIFVqMldxpXV-369" value="先验 = 后验" style="text;html=1;align=center;verticalAlign=middle;resizable=0;points=[];autosize=1;strokeColor=#d6b656;fillColor=#fff2cc;" vertex="1" parent="1">
          <mxGeometry x="1445" y="4470" width="80" height="30" as="geometry" />
        </mxCell>
        <mxCell id="1EqsSl1_fIFVqMldxpXV-370" value="发布后验状态" style="text;html=1;align=center;verticalAlign=middle;resizable=0;points=[];autosize=1;strokeColor=#d6b656;fillColor=#fff2cc;" vertex="1" parent="1">
          <mxGeometry x="1451" y="4560" width="100" height="30" as="geometry" />
        </mxCell>
        <mxCell id="1EqsSl1_fIFVqMldxpXV-372" value="&lt;div style=&quot;color: #cccccc;background-color: #1f1f1f;font-family: &#39;JetBrains Mono&#39;, &#39;Droid Sans Mono&#39;, &#39;monospace&#39;, monospace;font-weight: normal;font-size: 14px;line-height: 19px;white-space: pre;&quot;&gt;&lt;div&gt;&lt;span style=&quot;color: #dcdcaa;&quot;&gt;fullInitialize&lt;/span&gt;&lt;/div&gt;&lt;/div&gt;" style="text;whiteSpace=wrap;html=1;" vertex="1" parent="1">
          <mxGeometry x="614" y="3674" width="150" height="40" as="geometry" />
        </mxCell>
        <mxCell id="1EqsSl1_fIFVqMldxpXV-373" value="&lt;div style=&quot;color: #cccccc;background-color: #1f1f1f;font-family: &#39;JetBrains Mono&#39;, &#39;Droid Sans Mono&#39;, &#39;monospace&#39;, monospace;font-weight: normal;font-size: 14px;line-height: 19px;white-space: pre;&quot;&gt;&lt;div&gt;&lt;span style=&quot;color: #cccccc;&quot;&gt;    &lt;/span&gt;&lt;span style=&quot;color: #dcdcaa;&quot;&gt;setPosition&lt;/span&gt;&lt;/div&gt;&lt;div&gt;&lt;span style=&quot;color: #cccccc;&quot;&gt;    &lt;/span&gt;&lt;span style=&quot;color: #dcdcaa;&quot;&gt;setVelocity&lt;/span&gt;&lt;span style=&quot;color: #cccccc;&quot;&gt;(&lt;/span&gt;&lt;span style=&quot;color: #b5cea8;&quot;&gt;0&lt;/span&gt;&lt;span style=&quot;color: #cccccc;&quot;&gt;,&lt;/span&gt;&lt;span style=&quot;color: #b5cea8;&quot;&gt;0&lt;/span&gt;&lt;span style=&quot;color: #cccccc;&quot;&gt;,&lt;/span&gt;&lt;span style=&quot;color: #b5cea8;&quot;&gt;0&lt;/span&gt;&lt;span style=&quot;color: #cccccc;&quot;&gt;);&lt;/span&gt;&lt;/div&gt;&lt;div&gt;&lt;span style=&quot;color: #cccccc;&quot;&gt;    &lt;/span&gt;&lt;span style=&quot;color: #dcdcaa;&quot;&gt;setAccelerationBias&lt;/span&gt;&lt;/div&gt;&lt;div&gt;&lt;span style=&quot;color: #cccccc;&quot;&gt;    &lt;/span&gt;&lt;span style=&quot;color: #dcdcaa;&quot;&gt;setAngularBias&lt;/span&gt;&lt;/div&gt;&lt;/div&gt;" style="text;whiteSpace=wrap;html=1;" vertex="1" parent="1">
          <mxGeometry x="827" y="3644" width="203" height="100" as="geometry" />
        </mxCell>
        <mxCell id="1EqsSl1_fIFVqMldxpXV-374" value="m_position = position_triangulation" style="text;html=1;align=center;verticalAlign=middle;resizable=0;points=[];autosize=1;strokeColor=#d79b00;fillColor=#ffe6cc;" vertex="1" parent="1">
          <mxGeometry x="1043" y="3654" width="230" height="30" as="geometry" />
        </mxCell>
        <mxCell id="1EqsSl1_fIFVqMldxpXV-375" value="&lt;b&gt;让三角化后的position赋值给m_position作为先验position&lt;/b&gt;&lt;div&gt;&lt;b&gt;同时初始化bias, acc, angularBias&lt;/b&gt;&lt;/div&gt;" style="text;html=1;align=center;verticalAlign=middle;resizable=0;points=[];autosize=1;strokeColor=none;fillColor=none;" vertex="1" parent="1">
          <mxGeometry x="1040" y="3690" width="340" height="40" as="geometry" />
        </mxCell>
        <mxCell id="1EqsSl1_fIFVqMldxpXV-376" value="" style="endArrow=classic;html=1;rounded=0;entryX=0.534;entryY=0.167;entryDx=0;entryDy=0;entryPerimeter=0;" edge="1" parent="1" target="1EqsSl1_fIFVqMldxpXV-292">
          <mxGeometry width="50" height="50" relative="1" as="geometry">
            <mxPoint x="674.44" y="3705" as="sourcePoint" />
            <mxPoint x="674" y="3830" as="targetPoint" />
          </mxGeometry>
        </mxCell>
        <mxCell id="1EqsSl1_fIFVqMldxpXV-377" value="" style="endArrow=classic;html=1;rounded=0;" edge="1" parent="1">
          <mxGeometry width="50" height="50" relative="1" as="geometry">
            <mxPoint x="669.8800000000001" y="3590" as="sourcePoint" />
            <mxPoint x="670" y="3680" as="targetPoint" />
          </mxGeometry>
        </mxCell>
        <mxCell id="1EqsSl1_fIFVqMldxpXV-378" value="状态量定义" style="text;html=1;align=center;verticalAlign=middle;resizable=0;points=[];autosize=1;strokeColor=none;fillColor=none;" vertex="1" parent="1">
          <mxGeometry x="971" y="3488" width="80" height="30" as="geometry" />
        </mxCell>
        <mxCell id="1EqsSl1_fIFVqMldxpXV-379" value="" style="curved=1;endArrow=classic;html=1;rounded=0;entryX=0;entryY=0.25;entryDx=0;entryDy=0;" edge="1" parent="1" source="1EqsSl1_fIFVqMldxpXV-329" target="1EqsSl1_fIFVqMldxpXV-372">
          <mxGeometry width="50" height="50" relative="1" as="geometry">
            <mxPoint x="540" y="4600" as="sourcePoint" />
            <mxPoint x="590" y="4550" as="targetPoint" />
            <Array as="points">
              <mxPoint x="590" y="4600" />
              <mxPoint x="520" y="4570" />
              <mxPoint x="390" y="4130" />
              <mxPoint x="480" y="3890" />
              <mxPoint x="530" y="3700" />
            </Array>
          </mxGeometry>
        </mxCell>
      </root>
    </mxGraphModel>
  </diagram>
</mxfile>
